<svg width="20" height="16" viewBox="0 0 20 16" fill="none" xmlns="http://www.w3.org/2000/svg">
<g clip-path="url(#clip0_711_2)">
<path fill-rule="evenodd" clip-rule="evenodd" d="M20.2155 12.4264C20.2155 14.1624 18.814 15.57 17.0842 15.57H0.0843506V3.14406C0.0843506 1.40764 1.48601 1.79649e-05 3.21588 1.79649e-05L20.2155 0V12.4264H20.2155Z" fill="white"/>
<path fill-rule="evenodd" clip-rule="evenodd" d="M14.6729 8.05787H14.6841H14.7057H14.7273H14.7489H14.7704H14.792H14.8136H14.8352H14.8568H14.8784H14.9H14.9216H14.9431H14.9647H14.9863H15.0079H15.0295H15.0511H15.0727H15.0942H15.1158H15.1374H15.159H15.1806H15.2022H15.2238H15.2454H15.2669H15.2885H15.3101H15.3317H15.3533H15.3749H15.3965H15.4181H15.4396H15.4612H15.4828H15.5044H15.526H15.5476H15.5692H15.5908H15.6124H15.6339H15.6555H15.6771H15.6987H15.7203H15.7419H15.7635H15.785H15.8066H15.8282H15.8498H15.8714H15.893H15.9146H15.9362H15.9577H15.9757L15.9793 8.05796C15.986 8.05812 15.9933 8.05843 16.0009 8.05884C16.0078 8.05922 16.0151 8.0597 16.0225 8.06026C16.0296 8.06078 16.0368 8.06139 16.0441 8.06205C16.0514 8.06272 16.0586 8.06346 16.0657 8.06425C16.0731 8.06507 16.0804 8.06595 16.0873 8.06689C16.095 8.06793 16.1023 8.06901 16.1089 8.07014C16.1136 8.07095 16.118 8.07177 16.1219 8.07262L16.1304 8.07456C16.1377 8.07625 16.1449 8.07808 16.152 8.08007C16.1593 8.08208 16.1665 8.08421 16.1736 8.0865C16.1809 8.08882 16.1881 8.09128 16.1952 8.09389C16.2024 8.09653 16.2096 8.09931 16.2168 8.10224C16.224 8.10522 16.2312 8.10837 16.2384 8.11164C16.2456 8.11498 16.2528 8.11845 16.26 8.12209C16.2672 8.12579 16.2744 8.12967 16.2815 8.1337C16.2888 8.13781 16.296 8.14212 16.3031 8.14656C16.3104 8.15112 16.3176 8.15581 16.3247 8.1607C16.332 8.16573 16.3392 8.1709 16.3463 8.17626C16.3536 8.18181 16.3608 8.18754 16.3679 8.19345C16.3752 8.19959 16.3824 8.20594 16.3895 8.21244C16.3969 8.21925 16.4041 8.2262 16.4111 8.23339C16.4185 8.24095 16.4257 8.24876 16.4327 8.25676C16.4401 8.26526 16.4473 8.27399 16.4542 8.28295C16.4617 8.2926 16.4689 8.3025 16.4758 8.31266C16.4834 8.3238 16.4906 8.33523 16.4974 8.34696C16.5051 8.36018 16.5123 8.3738 16.519 8.38778C16.527 8.40434 16.5342 8.42141 16.5406 8.43896C16.5492 8.46255 16.5565 8.487 16.5622 8.51224C16.5721 8.55598 16.5774 8.60206 16.5774 8.65017C16.5774 8.69852 16.5721 8.74479 16.5622 8.78868C16.5565 8.81399 16.5492 8.83852 16.5406 8.86214C16.5342 8.87975 16.527 8.89683 16.519 8.91345C16.5123 8.92742 16.5051 8.94106 16.4974 8.9543C16.4906 8.96605 16.4834 8.97747 16.4758 8.98861C16.4689 8.99878 16.4617 9.0087 16.4542 9.01834C16.4473 9.02731 16.4401 9.03602 16.4327 9.04452C16.4257 9.05251 16.4185 9.06031 16.4111 9.06787C16.4041 9.07506 16.3968 9.08201 16.3895 9.0888C16.3824 9.09529 16.3752 9.10158 16.3679 9.1077C16.3608 9.11359 16.3536 9.11932 16.3463 9.12486C16.3392 9.13019 16.332 9.13535 16.3247 9.14036C16.3176 9.14523 16.3104 9.14992 16.3031 9.15445C16.296 9.15887 16.2888 9.16314 16.2815 9.16724C16.2744 9.17124 16.2672 9.17509 16.26 9.17877C16.2528 9.18238 16.2456 9.18585 16.2384 9.18917C16.2312 9.19242 16.224 9.19551 16.2168 9.19848C16.2096 9.20137 16.2024 9.20416 16.1952 9.20676C16.1881 9.20933 16.1809 9.21175 16.1736 9.21404C16.1665 9.2163 16.1593 9.2184 16.152 9.22038C16.1449 9.22232 16.1377 9.22413 16.1304 9.2258L16.1219 9.22773C16.118 9.22862 16.1136 9.2295 16.1089 9.23035C16.1023 9.23152 16.095 9.23263 16.0873 9.23369C16.0804 9.23462 16.0731 9.23552 16.0657 9.23635C16.0586 9.23714 16.0514 9.23786 16.0441 9.2385C16.0368 9.23917 16.0296 9.23976 16.0225 9.24026C16.0151 9.2408 16.0078 9.24127 16.0009 9.24163C15.9933 9.24203 15.986 9.24231 15.9793 9.24248L15.9678 9.24262H15.9577H15.9362H15.9146H15.893H15.8714H15.8498H15.8282H15.8066H15.785H15.7635H15.7419H15.7203H15.6987H15.6771H15.6555H15.6339H15.6124H15.5908H15.5692H15.5476H15.526H15.5044H15.4828H15.4612H15.4396H15.4181H15.3965H15.3749H15.3533H15.3317H15.3101H15.2885H15.2669H15.2454H15.2238H15.2022H15.1806H15.159H15.1374H15.1158H15.0942H15.0727H15.0511H15.0295H15.0079H14.9863H14.9647H14.9431H14.9216H14.9H14.8784H14.8568H14.8352H14.8136H14.792H14.7704H14.7489H14.7273H14.7057H14.6841H14.6729V8.05787ZM16.4112 6.71699C16.4198 6.75676 16.4245 6.79887 16.4245 6.84323C16.4245 6.88751 16.4198 6.9296 16.4112 6.96934C16.4056 6.99487 16.3983 7.01941 16.3896 7.04294C16.3831 7.06011 16.3759 7.07673 16.368 7.09277C16.3613 7.10623 16.3541 7.11929 16.3464 7.13192C16.3396 7.1431 16.3323 7.15395 16.3248 7.16447C16.3179 7.17407 16.3107 7.18337 16.3032 7.19241C16.2963 7.20082 16.2891 7.20897 16.2816 7.2169C16.2746 7.22433 16.2674 7.23154 16.2601 7.23852C16.253 7.24517 16.2458 7.25162 16.2385 7.25785C16.2314 7.26382 16.2242 7.26959 16.2169 7.27517C16.2098 7.28056 16.2026 7.28575 16.1953 7.29078C16.1882 7.29563 16.181 7.30031 16.1737 7.30481C16.1666 7.3092 16.1594 7.31342 16.1521 7.31746C16.145 7.32141 16.1378 7.32522 16.1305 7.32885C16.1234 7.33241 16.1162 7.3358 16.1089 7.33906C16.1018 7.34224 16.0946 7.34525 16.0873 7.34813C16.0802 7.35095 16.073 7.35363 16.0658 7.35616C16.0586 7.35866 16.0514 7.36101 16.0442 7.3632C16.037 7.36537 16.0298 7.36742 16.0226 7.36931C16.0154 7.37118 16.0083 7.3729 16.001 7.37448C15.9939 7.37606 15.9867 7.37747 15.9794 7.37876L15.9742 7.37971C15.97 7.38045 15.9644 7.38127 15.9578 7.3821C15.9515 7.38291 15.9441 7.38375 15.9362 7.38454C15.9294 7.38524 15.9221 7.38593 15.9147 7.38656C15.9076 7.38715 15.9003 7.38767 15.8931 7.38814C15.8858 7.3886 15.8786 7.389 15.8715 7.38929C15.864 7.38959 15.8567 7.38979 15.8499 7.38983L15.8465 7.38984H15.8283H15.8067H15.7851H15.7636H15.742H15.7204H15.6988H15.6772H15.6556H15.634H15.6125H15.5909H15.5693H15.5477H15.5261H15.5045H15.4829H15.4614H15.4398H15.4182H15.3966H15.375H15.3534H15.3318H15.3102H15.2887H15.2671H15.2455H15.2239H15.2023H15.1807H15.1591H15.1376H15.116H15.0944H15.0728H15.0512H15.0296H15.008H14.9864H14.9649H14.9433H14.9217H14.9001H14.8785H14.8569H14.8353H14.8138H14.7922H14.7706H14.749H14.7274H14.7058H14.6842H14.6729V6.29655H14.6842H14.7058H14.7274H14.749H14.7706H14.7922H14.8138H14.8353H14.8569H14.8785H14.9001H14.9217H14.9433H14.9649H14.9864H15.008H15.0296H15.0512H15.0728H15.0944H15.116H15.1376H15.1591H15.1807H15.2023H15.2239H15.2455H15.2671H15.2887H15.3102H15.3318H15.3534H15.375H15.3966H15.4182H15.4398H15.4614H15.4829H15.5045H15.5261H15.5477H15.5693H15.5909H15.6125H15.634H15.6556H15.6772H15.6988H15.7204H15.742H15.7636H15.7851H15.8067H15.8283H15.8499H15.859L15.8715 6.29697C15.8786 6.29725 15.8858 6.29768 15.8931 6.29815C15.9003 6.29862 15.9076 6.29916 15.9147 6.29973C15.9221 6.30034 15.9294 6.30103 15.9362 6.30169C15.9441 6.30246 15.9515 6.30324 15.9578 6.30397C15.9644 6.30473 15.97 6.30545 15.9742 6.30604L15.9794 6.30699C15.9867 6.3083 15.9939 6.30976 16.001 6.31136C16.0083 6.31295 16.0154 6.3147 16.0226 6.31658C16.0298 6.31851 16.037 6.32054 16.0442 6.32273C16.0514 6.32495 16.0586 6.32733 16.0658 6.32982C16.073 6.33237 16.0802 6.33507 16.0873 6.33791C16.0946 6.3408 16.1018 6.34385 16.1089 6.34703C16.1162 6.3503 16.1234 6.3537 16.1305 6.35726C16.1378 6.3609 16.145 6.36469 16.1521 6.36865C16.1594 6.37271 16.1666 6.37695 16.1737 6.38133C16.181 6.38584 16.1882 6.39051 16.1953 6.39538C16.2026 6.40039 16.2098 6.40564 16.2169 6.41102C16.2242 6.41661 16.2314 6.42238 16.2385 6.42834C16.2458 6.4346 16.253 6.44104 16.2601 6.44769C16.2674 6.45468 16.2746 6.46188 16.2816 6.46932C16.2891 6.47723 16.2963 6.4854 16.3032 6.49381C16.3107 6.50284 16.3179 6.51217 16.3248 6.52176C16.3323 6.53229 16.3396 6.54312 16.3464 6.55431C16.3541 6.56694 16.3613 6.58 16.368 6.59346C16.3759 6.6095 16.3831 6.62615 16.3896 6.64333C16.3983 6.66686 16.4056 6.69142 16.4112 6.71699ZM19.0883 1.04785H19.0971L19.0971 12.2763C19.0971 12.3433 19.094 12.4097 19.0883 12.4753C19.0832 12.533 19.076 12.5901 19.0667 12.6465C19.0604 12.6844 19.0532 12.7219 19.0451 12.7592C19.0385 12.7894 19.0313 12.8195 19.0235 12.8493C19.0167 12.875 19.0095 12.9006 19.0019 12.9259C18.995 12.9488 18.9879 12.9716 18.9803 12.9943C18.9734 13.0148 18.9662 13.0351 18.9587 13.0553C18.9518 13.0742 18.9445 13.0929 18.9371 13.1115C18.9301 13.129 18.9229 13.1464 18.9155 13.1636C18.9085 13.18 18.9013 13.1962 18.8939 13.2124C18.8869 13.2278 18.8797 13.2431 18.8724 13.2582C18.8653 13.2728 18.8581 13.2873 18.8508 13.3017C18.8437 13.3154 18.8365 13.3292 18.8292 13.3428C18.8221 13.3559 18.8149 13.3688 18.8076 13.3818C18.8005 13.3943 18.7933 13.4067 18.786 13.4191C18.7789 13.4311 18.7717 13.4431 18.7644 13.455C18.7573 13.4665 18.7501 13.4781 18.7428 13.4895C18.7357 13.5006 18.7285 13.5116 18.7212 13.5225C18.7141 13.5331 18.7069 13.5437 18.6996 13.5542C18.6925 13.5645 18.6853 13.5748 18.678 13.585C18.6709 13.595 18.6637 13.6049 18.6564 13.6147C18.6493 13.6243 18.6421 13.6338 18.6348 13.6433C18.6277 13.6526 18.6205 13.6619 18.6133 13.6711C18.6061 13.6801 18.5989 13.6891 18.5917 13.698C18.5845 13.7067 18.5773 13.7154 18.5701 13.724C18.5629 13.7325 18.5558 13.741 18.5485 13.7494C18.5414 13.7576 18.5341 13.7658 18.5269 13.7739C18.5198 13.7819 18.5126 13.7898 18.5053 13.7977C18.4981 13.8055 18.491 13.8133 18.4837 13.821C18.4766 13.8285 18.4694 13.836 18.4621 13.8434C18.4549 13.8508 18.4478 13.8583 18.4405 13.8655C18.4334 13.8727 18.4262 13.8797 18.4189 13.8867C18.4118 13.8937 18.4046 13.9007 18.3973 13.9076C18.3902 13.9144 18.383 13.9211 18.3758 13.9278C18.3686 13.9344 18.3614 13.941 18.3542 13.9475C18.347 13.954 18.3398 13.9604 18.3326 13.9667C18.3254 13.973 18.3182 13.9792 18.311 13.9854C18.3038 13.9916 18.2967 13.9977 18.2894 14.0038C18.2823 14.0097 18.275 14.0156 18.2678 14.0215C18.2606 14.0273 18.2535 14.0331 18.2462 14.0389C18.2391 14.0446 18.2318 14.0501 18.2246 14.0557C18.2174 14.0613 18.2103 14.0668 18.203 14.0723C18.1959 14.0777 18.1887 14.083 18.1814 14.0883C18.1743 14.0936 18.1671 14.0989 18.1598 14.1041C18.1527 14.1093 18.1455 14.1143 18.1383 14.1193C18.1311 14.1243 18.1239 14.1294 18.1167 14.1344C18.1095 14.1392 18.1023 14.144 18.0951 14.1488C18.0879 14.1536 18.0807 14.1584 18.0735 14.1631C18.0663 14.1678 18.0591 14.1723 18.0519 14.1769C18.0447 14.1814 18.0375 14.186 18.0303 14.1904C18.0231 14.1948 18.016 14.1992 18.0087 14.2036L17.9871 14.2164C17.9799 14.2206 17.9728 14.2248 17.9655 14.2289C17.9584 14.233 17.9512 14.237 17.9439 14.241C17.9368 14.2451 17.9296 14.2491 17.9224 14.253C17.9152 14.2569 17.908 14.2606 17.9008 14.2645C17.8936 14.2683 17.8864 14.2722 17.8792 14.2759C17.872 14.2796 17.8648 14.2831 17.8576 14.2867C17.8504 14.2903 17.8432 14.2939 17.836 14.2975C17.8288 14.3009 17.8216 14.3044 17.8144 14.3078L17.7928 14.3179L17.7712 14.3277C17.7641 14.3309 17.7568 14.3341 17.7496 14.3372C17.7424 14.3403 17.7353 14.3436 17.728 14.3466C17.7209 14.3496 17.7137 14.3525 17.7064 14.3555C17.6993 14.3584 17.6921 14.3615 17.6849 14.3643C17.6777 14.3672 17.6705 14.3699 17.6633 14.3727C17.6561 14.3754 17.6489 14.3782 17.6417 14.3809L17.6201 14.3889C17.6129 14.3915 17.6057 14.394 17.5985 14.3965C17.5913 14.3991 17.5842 14.4017 17.5769 14.4042C17.5697 14.4066 17.5625 14.4088 17.5553 14.4112L17.5337 14.4182C17.5266 14.4205 17.5193 14.4227 17.5121 14.4249L17.4905 14.4314C17.4834 14.4335 17.4762 14.4356 17.4689 14.4377C17.4618 14.4397 17.4546 14.4416 17.4474 14.4436C17.4402 14.4455 17.433 14.4475 17.4258 14.4494L17.4042 14.4549L17.3826 14.4602L17.361 14.4653C17.3538 14.467 17.3466 14.4685 17.3394 14.4701C17.3322 14.4716 17.325 14.4733 17.3178 14.4748L17.2962 14.4791L17.2746 14.4833C17.2674 14.4846 17.2603 14.4861 17.253 14.4873C17.2459 14.4886 17.2386 14.4897 17.2314 14.4909L17.2099 14.4945L17.1883 14.4978L17.1667 14.5008C17.1595 14.5018 17.1523 14.5029 17.1451 14.5039C17.1379 14.5048 17.1307 14.5055 17.1235 14.5063C17.1163 14.5072 17.1091 14.508 17.1019 14.5088C17.0947 14.5096 17.0875 14.5104 17.0803 14.5111C17.0732 14.5118 17.0659 14.5124 17.0587 14.513C17.0515 14.5136 17.0443 14.5143 17.0371 14.5149C17.03 14.5155 17.0227 14.5159 17.0155 14.5164L16.994 14.5178C16.9868 14.5182 16.9796 14.5188 16.9724 14.5191C16.9652 14.5195 16.958 14.5196 16.9508 14.5199L16.9292 14.5208L16.9076 14.5213C16.9004 14.5215 16.8932 14.5215 16.886 14.5216L16.8644 14.5219L16.86 14.5219H16.8428H16.8212H16.7996H16.7781H16.7565H16.7349H16.7133H16.6917H16.6701H16.6485H16.6269H16.6053H16.5837H16.5622H16.5406H16.519H16.4974H16.4758H16.4542H16.4326H16.411H16.3894H16.3678H16.3462H16.3247H16.3031H16.2815H16.2599H16.2383H16.2167H16.1951H16.1735H16.1519H16.1303H16.1087H16.0872H16.0656H16.044H16.0224H16.0008H15.9792H15.9576H15.936H15.9144H15.8928H15.8712H15.8497H15.8281H15.8065H15.7849H15.7633H15.7417H15.7201H15.6985H15.6769H15.6553H15.6337H15.6122H15.5906H15.569H15.5474H15.5258H15.5042H15.4826H15.461H15.4394H15.4178H15.3962H15.3747H15.3531H15.3315H15.3099H15.2883H15.2667H15.2451H15.2235H15.2019H15.1803H15.1588H15.1372H15.1156H15.094H15.0724H15.0508H15.0292H15.0076H14.986H14.9644H14.9428H14.9213H14.8997H14.8781H14.8565H14.8349H14.8133H14.7917H14.7701H14.7485H14.7269H14.7053H14.6838H14.6622H14.6406H14.619H14.5974H14.5758H14.5542H14.5326H14.511H14.4894H14.4678H14.4463H14.4247H14.4031H14.3815H14.3599H14.3383H14.3167H14.2951H14.2735H14.2519H14.2303H14.2088H14.1872H14.1656H14.144H14.1224H14.1008H14.0792H14.0576H14.036H14.0144H13.9928H13.9713H13.9497H13.9281H13.9065H13.8849H13.8633H13.8417H13.8201H13.7985H13.7769H13.7554H13.7338H13.7122H13.6906H13.669H13.6474H13.6258H13.5792V9.94372H13.6258H13.6474H13.669H13.6906H13.7122H13.7338H13.7554H13.7769H13.7985H13.8201H13.8417H13.8633H13.8849H13.9065H13.9281H13.9497H13.9713H13.9928H14.0144H14.036H14.0576H14.0792H14.1008H14.1224H14.144H14.1656H14.1872H14.2088H14.2303H14.2519H14.2735H14.2951H14.3167H14.3383H14.3599H14.3815H14.4031H14.4247H14.4463H14.4678H14.4894H14.511H14.5326H14.5542H14.5758H14.5974H14.619H14.6406H14.6622H14.6838H14.7053H14.7269H14.7485H14.7701H14.7917H14.8133H14.8349H14.8565H14.8781H14.8997H14.9213H14.9428H14.9644H14.986H15.0076H15.0292H15.0508H15.0724H15.094H15.1156H15.1372H15.1588H15.1803H15.2019H15.2235H15.2451H15.2667H15.2883H15.3099H15.3315H15.3531H15.3747H15.3962H15.4178H15.4394H15.461H15.4826H15.5042H15.5258H15.5474H15.569H15.5906H15.6122H15.6337H15.6553H15.6769H15.6985H15.7201H15.7417H15.7633H15.7849H15.8065H15.8281H15.8497H15.8712H15.8928H15.9144H15.936H15.9576H15.9792H16.0008H16.0224H16.044H16.0656H16.0872H16.1087H16.1303H16.1519H16.1735H16.1951H16.2167H16.2383H16.2599H16.2815H16.3031H16.3247H16.3462H16.3678H16.3894H16.411H16.4326H16.4542H16.4758H16.4974H16.519H16.5406H16.5622H16.5837H16.6053H16.6269H16.6485H16.6701H16.6917H16.7133H16.7349H16.7565H16.7781H16.7996H16.8212H16.8428H16.8644H16.886H16.9076H16.9292H16.9508H16.9724H16.994H17.0155H17.0371H17.0486L17.0587 9.94363L17.0803 9.94345L17.1019 9.943C17.1091 9.94282 17.1163 9.94271 17.1235 9.94246C17.1307 9.94221 17.1379 9.94187 17.1451 9.94154L17.1667 9.94054L17.1883 9.93923L17.2099 9.93774L17.2314 9.93605L17.253 9.93405C17.2602 9.93337 17.2675 9.9327 17.2746 9.93195C17.2819 9.9312 17.289 9.93033 17.2962 9.92949L17.3178 9.92685C17.325 9.92591 17.3322 9.92502 17.3394 9.92401C17.3466 9.923 17.3538 9.92189 17.361 9.92081C17.3682 9.91972 17.3754 9.91864 17.3826 9.91747L17.4042 9.91382L17.4258 9.90993C17.433 9.90858 17.4402 9.90727 17.4474 9.90585C17.4546 9.90441 17.4618 9.90287 17.4689 9.90136L17.4905 9.89667C17.4978 9.89505 17.505 9.89343 17.5121 9.89174C17.5194 9.89004 17.5266 9.88822 17.5337 9.88643C17.5409 9.88463 17.5482 9.8828 17.5553 9.88091C17.5625 9.87901 17.5697 9.87709 17.5769 9.87509C17.5841 9.8731 17.5913 9.87101 17.5985 9.86891C17.6057 9.86681 17.6129 9.86467 17.6201 9.86248L17.6417 9.85569C17.6489 9.85337 17.6561 9.85096 17.6633 9.84854C17.6705 9.8461 17.6777 9.84365 17.6849 9.84112C17.6921 9.83857 17.6993 9.83602 17.7064 9.83338C17.7137 9.8307 17.7209 9.8279 17.728 9.82513C17.7353 9.82233 17.7425 9.81949 17.7496 9.8166C17.7569 9.81367 17.7641 9.81076 17.7712 9.80774C17.7785 9.80469 17.7856 9.80156 17.7928 9.7984C17.8001 9.7952 17.8072 9.79193 17.8144 9.78863C17.8216 9.78528 17.8288 9.78192 17.836 9.77849C17.8432 9.77503 17.8504 9.77152 17.8576 9.76795C17.8649 9.7643 17.872 9.7606 17.8792 9.75685C17.8864 9.75306 17.8936 9.74916 17.9008 9.74524C17.908 9.74127 17.9152 9.73726 17.9224 9.73319C17.9296 9.72905 17.9368 9.72487 17.9439 9.72061C17.9512 9.7163 17.9584 9.71195 17.9655 9.70751C17.9728 9.70297 17.98 9.69837 17.9871 9.69372C17.9944 9.68898 18.0016 9.68416 18.0087 9.67929C18.016 9.67435 18.0232 9.66932 18.0303 9.66424C18.0376 9.65904 18.0448 9.6538 18.0519 9.64848C18.0592 9.64306 18.0664 9.63756 18.0735 9.63199C18.0808 9.62628 18.088 9.62053 18.0951 9.61469C18.1024 9.60871 18.1096 9.60265 18.1167 9.59653C18.124 9.59024 18.1312 9.58384 18.1383 9.57739C18.1456 9.57077 18.1528 9.56403 18.1598 9.55724C18.1672 9.55023 18.1744 9.54314 18.1814 9.53595C18.1888 9.52851 18.196 9.521 18.203 9.51339C18.2104 9.50552 18.2176 9.49752 18.2246 9.48946C18.232 9.48107 18.2392 9.47257 18.2462 9.46396C18.2536 9.455 18.2608 9.44593 18.2678 9.43675C18.2752 9.42712 18.2824 9.41743 18.2894 9.40757C18.2968 9.3971 18.304 9.38645 18.311 9.3757C18.3184 9.36431 18.3256 9.35278 18.3326 9.3411C18.3401 9.32854 18.3473 9.31581 18.3542 9.30291C18.3617 9.28888 18.3689 9.27469 18.3758 9.26026C18.3834 9.24415 18.3906 9.22776 18.3973 9.21116C18.4051 9.19212 18.4123 9.17282 18.4189 9.15317C18.4271 9.12895 18.4342 9.10425 18.4405 9.07912C18.4497 9.04238 18.457 9.00467 18.4621 8.96605C18.4684 8.91918 18.4717 8.87101 18.4717 8.82152C18.4717 8.77332 18.4684 8.7265 18.4621 8.68104C18.457 8.64369 18.4497 8.60727 18.4405 8.57183C18.4342 8.54766 18.427 8.52397 18.4189 8.50072C18.4123 8.48166 18.4051 8.46287 18.3973 8.44444C18.3906 8.42847 18.3834 8.41273 18.3758 8.39724C18.3689 8.3833 18.3617 8.36956 18.3542 8.35601C18.3472 8.34355 18.3401 8.33122 18.3326 8.3191C18.3256 8.30783 18.3184 8.29673 18.311 8.28577C18.304 8.27542 18.2968 8.26515 18.2894 8.25507C18.2824 8.24555 18.2752 8.23619 18.2678 8.22692C18.2608 8.21804 18.2536 8.20929 18.2462 8.20064C18.2392 8.19234 18.232 8.18411 18.2246 8.17601C18.2176 8.16821 18.2104 8.1605 18.203 8.1529C18.196 8.14557 18.1888 8.13835 18.1814 8.1312C18.1744 8.12427 18.1671 8.11742 18.1598 8.11067C18.1528 8.10411 18.1455 8.09764 18.1383 8.09125C18.1312 8.08501 18.124 8.07885 18.1167 8.07278C18.1096 8.06685 18.1024 8.06099 18.0951 8.05521C18.088 8.04957 18.0808 8.04398 18.0735 8.03848C18.0664 8.03309 18.0592 8.02779 18.0519 8.02253C18.0448 8.01739 18.0376 8.01231 18.0303 8.0073C18.0232 8.00239 18.016 7.99752 18.0087 7.99273C18.0016 7.98802 17.9944 7.98337 17.9871 7.97879C17.98 7.9743 17.9728 7.96984 17.9655 7.96546C17.9584 7.96116 17.9512 7.95692 17.9439 7.95274C17.9368 7.94862 17.9296 7.94456 17.9224 7.94056C17.9152 7.93661 17.908 7.93272 17.9008 7.9289C17.8936 7.92511 17.8864 7.92137 17.8792 7.91767C17.872 7.91404 17.8648 7.91043 17.8576 7.90689C17.8504 7.90341 17.8433 7.89994 17.836 7.89654C17.8288 7.8932 17.8216 7.88995 17.8144 7.88672C17.8073 7.88352 17.8001 7.88037 17.7928 7.87727C17.7856 7.8742 17.7785 7.87118 17.7712 7.86819C17.7641 7.86525 17.7569 7.8623 17.7496 7.85945C17.7425 7.85663 17.7353 7.85384 17.728 7.85111C17.7209 7.84842 17.7137 7.84581 17.7064 7.84319C17.6993 7.8406 17.6921 7.83809 17.6849 7.83557C17.6777 7.83309 17.6705 7.83063 17.6633 7.82822C17.6561 7.82585 17.6489 7.82353 17.6417 7.82125C17.6345 7.81899 17.6273 7.8168 17.6201 7.81462L17.5985 7.80826C17.5913 7.8062 17.5841 7.80413 17.5769 7.80216C17.5697 7.8002 17.5625 7.79831 17.5553 7.79644C17.5482 7.79457 17.541 7.79278 17.5337 7.79098C17.5266 7.7892 17.5194 7.78744 17.5121 7.78575C17.505 7.78407 17.4978 7.78243 17.4905 7.78083C17.4834 7.77923 17.4762 7.77771 17.4689 7.7762C17.4618 7.77469 17.4546 7.77318 17.4474 7.77176L17.4258 7.76761L17.4042 7.76375C17.397 7.76249 17.3898 7.76123 17.3826 7.76006L17.361 7.75665C17.3538 7.75555 17.3466 7.75453 17.3394 7.75352L17.3178 7.75056L17.2962 7.74783L17.2746 7.74539L17.253 7.74311L17.2314 7.74109L17.2099 7.73928L17.1899 7.73773L17.1899 7.71176L17.2099 7.70865L17.2314 7.70507C17.2387 7.70383 17.2459 7.70259 17.253 7.70128L17.2746 7.69711C17.2819 7.69568 17.2891 7.69419 17.2962 7.69266L17.3178 7.68793C17.325 7.6863 17.3323 7.68465 17.3394 7.68292C17.3467 7.68116 17.3538 7.67933 17.361 7.6775C17.3683 7.67565 17.3754 7.67371 17.3826 7.67177C17.3898 7.66979 17.397 7.66778 17.4042 7.66571C17.4114 7.66363 17.4186 7.66153 17.4258 7.65935C17.433 7.65716 17.4402 7.6549 17.4474 7.6526C17.4546 7.65026 17.4618 7.64785 17.4689 7.64543C17.4762 7.64297 17.4834 7.64044 17.4905 7.63789C17.4978 7.6353 17.505 7.63268 17.5121 7.62998C17.5194 7.62725 17.5266 7.62448 17.5337 7.62166C17.541 7.61881 17.5482 7.61588 17.5553 7.61291C17.5626 7.6099 17.5698 7.60684 17.5769 7.60372C17.5842 7.60054 17.5913 7.5973 17.5985 7.59401C17.6058 7.59069 17.6129 7.58728 17.6201 7.58383C17.6274 7.58033 17.6345 7.57675 17.6417 7.57314C17.6489 7.56946 17.6561 7.56572 17.6633 7.56193C17.6705 7.55807 17.6777 7.55413 17.6849 7.55016C17.6921 7.5461 17.6993 7.54199 17.7064 7.53782C17.7137 7.53356 17.7209 7.52923 17.728 7.52485C17.7353 7.52038 17.7425 7.51585 17.7496 7.51125C17.7569 7.50656 17.7641 7.50176 17.7712 7.49693C17.7785 7.49199 17.7857 7.48698 17.7928 7.48189C17.8001 7.47669 17.8073 7.47142 17.8144 7.46609C17.8217 7.46061 17.8289 7.45507 17.836 7.44945C17.8433 7.44367 17.8505 7.43785 17.8576 7.43192C17.8649 7.42581 17.8721 7.41961 17.8792 7.41336C17.8865 7.40687 17.8937 7.40032 17.9008 7.39369C17.9081 7.38684 17.9153 7.37991 17.9224 7.3729C17.9297 7.36564 17.9369 7.35831 17.9439 7.35089C17.9513 7.34313 17.9585 7.3353 17.9655 7.32736C17.9729 7.3191 17.9801 7.31071 17.9871 7.30225C17.9945 7.29339 18.0017 7.28441 18.0087 7.27533C18.0161 7.26576 18.0233 7.25606 18.0303 7.24625C18.0377 7.23585 18.0449 7.22532 18.0519 7.21469C18.0593 7.20333 18.0666 7.19187 18.0735 7.18025C18.081 7.16765 18.0882 7.15492 18.0951 7.14204C18.1027 7.12786 18.1098 7.11352 18.1167 7.09903C18.1243 7.08271 18.1315 7.06617 18.1383 7.04946C18.1461 7.02999 18.1533 7.01024 18.1598 6.99025C18.1681 6.96512 18.1753 6.93957 18.1814 6.9137C18.1914 6.87174 18.1986 6.82889 18.203 6.78531C18.2066 6.75092 18.2084 6.71607 18.2084 6.68088C18.2084 6.64371 18.2065 6.60747 18.203 6.57213C18.1986 6.52697 18.1913 6.48335 18.1814 6.44124C18.1753 6.41494 18.1681 6.38923 18.1598 6.36415C18.1533 6.34409 18.1461 6.32442 18.1383 6.30512C18.1315 6.2885 18.1243 6.27217 18.1167 6.25615C18.1098 6.24185 18.1026 6.22778 18.0951 6.21395C18.0882 6.20128 18.081 6.18882 18.0735 6.17653C18.0665 6.16512 18.0593 6.15388 18.0519 6.14281C18.0449 6.13244 18.0377 6.12224 18.0303 6.11218C18.0233 6.10266 18.0161 6.09326 18.0087 6.08401C18.0017 6.07517 17.9945 6.06642 17.9871 6.05782C17.9801 6.04964 17.9729 6.04161 17.9655 6.03365C17.9585 6.026 17.9513 6.01846 17.9439 6.011C17.9369 6.00381 17.9297 5.99674 17.9224 5.98975C17.9153 5.98298 17.9081 5.97627 17.9008 5.9697C17.8937 5.96332 17.8865 5.95702 17.8792 5.9508C17.8721 5.94476 17.8649 5.9388 17.8576 5.93292C17.8505 5.92721 17.8433 5.92155 17.836 5.916C17.8289 5.91058 17.8217 5.90524 17.8144 5.89998C17.8073 5.89482 17.8001 5.88975 17.7928 5.88474C17.7857 5.87986 17.7785 5.87504 17.7712 5.87028C17.7641 5.86561 17.7569 5.86101 17.7496 5.85648C17.7425 5.85205 17.7353 5.84768 17.728 5.84337C17.7209 5.83913 17.7137 5.83496 17.7064 5.83085C17.6993 5.82681 17.6921 5.82282 17.6849 5.8189C17.6777 5.81504 17.6705 5.81127 17.6633 5.80751C17.6561 5.80383 17.6489 5.8002 17.6417 5.79663C17.6345 5.7931 17.6274 5.7896 17.6201 5.78621C17.6129 5.78285 17.6057 5.77952 17.5985 5.77629C17.5913 5.77309 17.5842 5.77 17.5769 5.76689C17.5698 5.76384 17.5625 5.76084 17.5553 5.75787C17.5482 5.75496 17.541 5.75209 17.5337 5.74927C17.5266 5.74648 17.5194 5.74372 17.5121 5.74102C17.505 5.73836 17.4978 5.73576 17.4905 5.73319C17.4834 5.73066 17.4762 5.7282 17.4689 5.72575C17.4618 5.72335 17.4546 5.72099 17.4474 5.71868C17.4402 5.71638 17.433 5.71411 17.4258 5.7119C17.4186 5.70971 17.4114 5.70752 17.4042 5.70542C17.397 5.70335 17.3898 5.70136 17.3826 5.69938C17.3754 5.6974 17.3682 5.6955 17.361 5.69361L17.3394 5.6881C17.3322 5.68632 17.3251 5.68458 17.3178 5.68289C17.3107 5.68122 17.3035 5.6796 17.2962 5.67802L17.2746 5.6734C17.2675 5.67191 17.2603 5.6704 17.253 5.669C17.2459 5.6676 17.2387 5.66631 17.2314 5.66498L17.2099 5.66117C17.2027 5.65995 17.1955 5.65871 17.1883 5.65756L17.1667 5.65427L17.1451 5.65122L17.1235 5.64834L17.1019 5.64577L17.0803 5.64344L17.0587 5.64126L17.0371 5.63936L17.0155 5.63769L16.994 5.63614L16.9724 5.6349L16.9638 5.63442L16.9508 5.63361L16.9292 5.63234L16.9076 5.63113L16.886 5.63L16.8644 5.62896L16.8428 5.62802L16.8212 5.62723L16.7996 5.62657L16.7781 5.62608L16.7565 5.6258L16.7446 5.62576H16.7349H16.7133H16.6917H16.6701H16.6485H16.6269H16.6053H16.5837H16.5622H16.5406H16.519H16.4974H16.4758H16.4542H16.4326H16.411H16.3894H16.3678H16.3462H16.3247H16.3031H16.2815H16.2599H16.2383H16.2167H16.1951H16.1735H16.1519H16.1303H16.1087H16.0872H16.0656H16.044H16.0224H16.0008H15.9792H15.9576H15.936H15.9144H15.8928H15.8712H15.8497H15.8281H15.8065H15.7849H15.7633H15.7417H15.7201H15.6985H15.6769H15.6553H15.6337H15.6122H15.5906H15.569H15.5474H15.5258H15.5042H15.4826H15.461H15.4394H15.4178H15.3962H15.3747H15.3531H15.3315H15.3099H15.2883H15.2667H15.2451H15.2235H15.2019H15.1803H15.1588H15.1372H15.1156H15.094H15.0724H15.0508H15.0292H15.0076H14.986H14.9644H14.9428H14.9213H14.8997H14.8781H14.8565H14.8349H14.8133H14.7917H14.7701H14.7485H14.7269H14.7053H14.6838H14.6622H14.6406H14.619H14.5974H14.5758H14.5542H14.5326H14.511H14.4894H14.4678H14.4463H14.4247H14.4031H14.3815H14.3599H14.3383H14.3167H14.2951H14.2735H14.2519H14.2303H14.2088H14.1872H14.1656H14.144H14.1224H14.1008H14.0792H14.0576H14.036H14.0144H13.9928H13.9713H13.9497H13.9281H13.9065H13.8849H13.8633H13.8417H13.8201H13.7985H13.7769H13.7554H13.7338H13.7122H13.6906H13.669H13.6474H13.6258H13.5792V3.29372C13.5792 3.13683 13.5953 2.98373 13.6258 2.83592C13.6324 2.80426 13.6396 2.77288 13.6474 2.74174C13.6541 2.7151 13.6613 2.68866 13.669 2.66241C13.6758 2.63897 13.683 2.61569 13.6906 2.59256C13.6975 2.57144 13.7046 2.55042 13.7122 2.52958C13.7191 2.51025 13.7263 2.49103 13.7338 2.47195C13.7408 2.45413 13.7479 2.4364 13.7554 2.41881C13.7624 2.40221 13.7696 2.38568 13.7769 2.36928C13.784 2.3537 13.7912 2.33824 13.7985 2.32286C13.8056 2.30818 13.8128 2.29361 13.8201 2.27911C13.8272 2.26517 13.8344 2.25134 13.8417 2.23756C13.8488 2.22428 13.856 2.2111 13.8633 2.19798C13.8704 2.18526 13.8776 2.17265 13.8849 2.1601C13.892 2.14791 13.8992 2.13579 13.9065 2.12377C13.9136 2.11211 13.9208 2.10054 13.9281 2.08903C13.9351 2.07787 13.9424 2.06682 13.9497 2.05581C13.9568 2.04503 13.964 2.03429 13.9713 2.02363C13.9784 2.0132 13.9855 2.00276 13.9928 1.99245C13.9999 1.98246 14.0072 1.9726 14.0144 1.96273C14.0215 1.95303 14.0288 1.9434 14.036 1.93383C14.0432 1.9244 14.0503 1.91493 14.0576 1.90562C14.0647 1.89657 14.072 1.88766 14.0792 1.87871C14.0863 1.86989 14.0935 1.86114 14.1008 1.85245C14.108 1.84386 14.1151 1.83527 14.1224 1.82679C14.1295 1.81853 14.1368 1.81041 14.144 1.80225C14.1512 1.79417 14.1583 1.78607 14.1656 1.77809C14.1727 1.77027 14.1799 1.76253 14.1872 1.75481C14.1943 1.74719 14.2015 1.73963 14.2088 1.7321C14.2159 1.72468 14.2231 1.71726 14.2303 1.70993C14.2375 1.70273 14.2447 1.69563 14.2519 1.68853C14.2591 1.68147 14.2662 1.67434 14.2735 1.66739C14.2806 1.66058 14.2879 1.65393 14.2951 1.64721C14.3023 1.64053 14.3095 1.63383 14.3167 1.62724C14.3239 1.62075 14.3311 1.61439 14.3383 1.60802C14.3455 1.60167 14.3527 1.59533 14.3599 1.58908C14.3671 1.58292 14.3743 1.57685 14.3815 1.57077C14.3887 1.56476 14.3958 1.55876 14.4031 1.55283C14.4102 1.54695 14.4174 1.54115 14.4247 1.53538L14.4463 1.51833L14.4678 1.50174C14.475 1.49629 14.4822 1.49088 14.4894 1.48553C14.4966 1.48023 14.5038 1.47495 14.511 1.46972L14.5326 1.45433C14.5398 1.44928 14.547 1.44427 14.5542 1.43931L14.5758 1.42463L14.5974 1.41035C14.6046 1.40566 14.6117 1.40099 14.619 1.39639L14.6406 1.38284C14.6478 1.37837 14.6549 1.3739 14.6622 1.36951C14.6693 1.36517 14.6765 1.36094 14.6838 1.35669C14.691 1.35243 14.6981 1.34814 14.7053 1.34397C14.7125 1.33985 14.7197 1.33588 14.7269 1.33184C14.7341 1.3278 14.7413 1.32368 14.7485 1.31973C14.7557 1.31583 14.7629 1.31206 14.7701 1.30823C14.7773 1.30441 14.7845 1.30056 14.7917 1.29681C14.7989 1.29309 14.8061 1.28948 14.8133 1.28585C14.8205 1.28224 14.8277 1.27861 14.8349 1.27507L14.8565 1.2646C14.8637 1.26117 14.8709 1.25783 14.8781 1.25447C14.8853 1.25112 14.8924 1.24773 14.8997 1.24446C14.9068 1.24123 14.9141 1.23814 14.9213 1.23497C14.9285 1.23181 14.9356 1.2286 14.9428 1.22551C14.95 1.22245 14.9572 1.21954 14.9644 1.21656C14.9716 1.2136 14.9788 1.2106 14.986 1.2077L15.0076 1.19917L15.0292 1.19092C15.0364 1.18819 15.0436 1.18543 15.0508 1.18279C15.058 1.18016 15.0652 1.1777 15.0724 1.17515C15.0796 1.1726 15.0867 1.17 15.094 1.16752C15.1011 1.16505 15.1084 1.16274 15.1156 1.16035L15.1372 1.15332C15.1444 1.15102 15.1515 1.14871 15.1588 1.14648C15.1659 1.14427 15.1731 1.14219 15.1803 1.14005C15.1875 1.13789 15.1947 1.13566 15.2019 1.1336C15.2091 1.13155 15.2163 1.12965 15.2235 1.12767C15.2307 1.12569 15.2379 1.1237 15.2451 1.1218L15.2667 1.11619C15.2739 1.11438 15.2811 1.11265 15.2883 1.11091C15.2955 1.10917 15.3026 1.1073 15.3099 1.10563C15.317 1.10397 15.3243 1.10246 15.3315 1.10087L15.3531 1.09614L15.3747 1.09167C15.3818 1.09023 15.389 1.08888 15.3962 1.08752C15.4034 1.08613 15.4106 1.08466 15.4178 1.08335C15.425 1.08204 15.4322 1.08092 15.4394 1.0797L15.461 1.07611C15.4682 1.07496 15.4754 1.07377 15.4826 1.0727C15.4898 1.07162 15.497 1.07067 15.5042 1.06966C15.5114 1.06865 15.5186 1.06756 15.5258 1.06662C15.533 1.06569 15.5402 1.06486 15.5474 1.064L15.569 1.06152C15.5762 1.06073 15.5833 1.05985 15.5906 1.05913C15.5977 1.05841 15.605 1.05786 15.6122 1.05721L15.6337 1.05529L15.6553 1.05365C15.6625 1.05313 15.6697 1.05272 15.6769 1.05227C15.6841 1.05184 15.6913 1.05128 15.6985 1.05091C15.7057 1.05053 15.7129 1.05031 15.7201 1.05001L15.7417 1.0492C15.7489 1.04897 15.7561 1.04866 15.7633 1.0485C15.7705 1.04834 15.7777 1.04832 15.7849 1.04821C15.7921 1.0481 15.7993 1.04798 15.8065 1.04794L15.8119 1.04787H15.8281H15.8497H15.8712H15.8928H15.9144H15.936H15.9576H15.9792H16.0008H16.0224H16.044H16.0656H16.0872H16.1087H16.1303H16.1519H16.1735H16.1951H16.2167H16.2383H16.2599H16.2815H16.3031H16.3247H16.3462H16.3678H16.3894H16.411H16.4326H16.4542H16.4758H16.4974H16.519H16.5406H16.5622H16.5837H16.6053H16.6269H16.6485H16.6701H16.6917H16.7133H16.7349H16.7565H16.7781H16.7996H16.8212H16.8428H16.8644H16.886H16.9076H16.9292H16.9508H16.9724H16.994H17.0155H17.0371H17.0587H17.0803H17.1019H17.1235H17.1451H17.1667H17.1883H17.2099H17.2314H17.253H17.2746H17.2962H17.3178H17.3394H17.361H17.3826H17.4042H17.4258H17.4474H17.4689H17.4905H17.5121H17.5337H17.5553H17.5769H17.5985H17.6201H17.6417H17.6633H17.6849H17.7064H17.728H17.7496H17.7712H17.7928H17.8144H17.836H17.8576H17.8792H17.9008H17.9224H17.9439H17.9655H17.9871H18.0087H18.0303H18.0519H18.0735H18.0951H18.1167H18.1383H18.1598H18.1814H18.203H18.2246H18.2462H18.2678H18.2894H18.311H18.3326H18.3542H18.3758H18.3973H18.4189H18.4405H18.4621H18.4837H18.5053H18.5269H18.5485H18.5701H18.5917H18.6133H18.6348H18.6564H18.678H18.6996H18.7212H18.7428H18.7644H18.786H18.8076H18.8292H18.8508H18.8724H18.8939H18.9155H18.9371H18.9587H18.9803H19.0019H19.0235H19.0451H19.0667H19.0883V1.04785Z" fill="#23923A"/>
<path fill-rule="evenodd" clip-rule="evenodd" d="M1.24881 8.86209C1.23337 8.85472 1.21794 8.8473 1.20251 8.83981V3.2937C1.20251 3.13726 1.21848 2.98456 1.24881 2.83714C1.25532 2.80548 1.26255 2.77412 1.27037 2.74297C1.27706 2.71629 1.28428 2.68983 1.29192 2.66354C1.29873 2.64012 1.30593 2.61687 1.31346 2.59377C1.32037 2.57262 1.32751 2.55157 1.33503 2.53069C1.34199 2.51138 1.34911 2.49218 1.35657 2.47312C1.36353 2.45529 1.37073 2.43753 1.37813 2.41992C1.38513 2.40332 1.39231 2.38683 1.39968 2.37045C1.40669 2.35487 1.41389 2.33942 1.42122 2.32404C1.42824 2.30935 1.43547 2.29476 1.44279 2.28024C1.44982 2.2663 1.45701 2.25247 1.46433 2.23871C1.47138 2.22543 1.47858 2.21225 1.48588 2.19913C1.49295 2.18643 1.50012 2.1738 1.50744 2.16126C1.51453 2.14908 1.52167 2.13694 1.52899 2.1249C1.53607 2.11326 1.54327 2.10171 1.55055 2.09021C1.5576 2.07907 1.56485 2.06801 1.57209 2.05699C1.5792 2.04622 1.58636 2.03547 1.59364 2.02482C1.6008 2.01436 1.60788 2.00393 1.6152 1.9936C1.62227 1.98363 1.62952 1.97378 1.63675 1.96392C1.64387 1.95422 1.65105 1.94459 1.65831 1.93501C1.66545 1.9256 1.67257 1.91611 1.67986 1.90681C1.68694 1.89777 1.69419 1.88888 1.7014 1.87995C1.70852 1.87113 1.7157 1.86234 1.72297 1.85363C1.73011 1.84506 1.73725 1.83651 1.74451 1.82805C1.75161 1.81977 1.75884 1.81163 1.76607 1.80346C1.77321 1.79535 1.78035 1.78727 1.78762 1.77929C1.79472 1.77148 1.80195 1.76377 1.80916 1.75606C1.8163 1.74843 1.82348 1.74087 1.83073 1.73334C1.83787 1.72592 1.84503 1.7185 1.85227 1.71117C1.85939 1.70397 1.86662 1.69687 1.87384 1.68977C1.88101 1.68271 1.88812 1.6756 1.89538 1.66865C1.90249 1.66184 1.90973 1.65519 1.91693 1.64847C1.9241 1.64177 1.93122 1.63505 1.93849 1.62846C1.94561 1.62199 1.95284 1.61565 1.96003 1.60927C1.96721 1.60293 1.97435 1.59657 1.9816 1.59032C1.98874 1.58416 1.99593 1.5781 2.00314 1.57203C2.01028 1.56601 2.01746 1.56 2.02469 1.55407C2.03183 1.54821 2.03904 1.54241 2.04625 1.53662C2.05341 1.53089 2.06057 1.52522 2.0678 1.51957C2.07494 1.51399 2.08215 1.50847 2.08936 1.50297C2.09652 1.49753 2.10369 1.49211 2.11091 1.48675L2.13245 1.47098C2.13961 1.46579 2.14678 1.46063 2.15401 1.45553C2.16115 1.45048 2.16835 1.44549 2.17556 1.44053C2.18272 1.43559 2.18989 1.43068 2.1971 1.42583C2.20426 1.42104 2.21146 1.41631 2.21867 1.41159C2.22583 1.4069 2.23298 1.40217 2.24021 1.39756C2.24735 1.39299 2.25456 1.38854 2.26178 1.38405C2.26895 1.37957 2.27609 1.37505 2.28332 1.37066C2.29044 1.36633 2.29767 1.36213 2.30487 1.35787C2.31206 1.35361 2.31918 1.34928 2.32643 1.3451C2.33355 1.34099 2.3408 1.33705 2.34797 1.33301C2.35517 1.32897 2.36231 1.32487 2.36954 1.3209C2.37668 1.31698 2.38389 1.31321 2.39108 1.30938C2.39826 1.30556 2.40542 1.30171 2.41263 1.29796C2.41979 1.29424 2.42698 1.29059 2.43419 1.28695L2.45574 1.2762C2.46291 1.27266 2.47009 1.26913 2.4773 1.26568C2.48446 1.26224 2.49165 1.25892 2.49885 1.25556C2.50604 1.2522 2.51316 1.24877 2.52039 1.2455C2.52753 1.24225 2.53476 1.2392 2.54195 1.23603C2.54913 1.23287 2.55629 1.22966 2.5635 1.22657C2.57066 1.22351 2.57787 1.22057 2.58506 1.21758L2.60661 1.20875L2.62815 1.20016L2.64972 1.19193C2.65691 1.1892 2.66403 1.18638 2.67126 1.18372C2.6784 1.1811 2.68565 1.17865 2.69282 1.1761C2.7 1.17355 2.70716 1.17097 2.71437 1.16849L2.73591 1.16125L2.75748 1.15422C2.76465 1.15192 2.77181 1.14957 2.77902 1.14734C2.78616 1.14513 2.79339 1.14303 2.80057 1.14089C2.80776 1.13874 2.81492 1.13654 2.82213 1.13446C2.82929 1.13239 2.83648 1.13047 2.84368 1.12848L2.86524 1.1226C2.87242 1.1207 2.87957 1.11876 2.88679 1.11693C2.89394 1.11509 2.90115 1.11342 2.90833 1.11166C2.91551 1.1099 2.92268 1.10807 2.92989 1.10638C2.93705 1.10471 2.94426 1.10315 2.95144 1.10155L2.973 1.09684C2.98018 1.0953 2.98734 1.09373 2.99455 1.09228C3.00171 1.09084 3.00892 1.08951 3.01609 1.08813C3.02329 1.08675 3.03044 1.08531 3.03766 1.084C3.04483 1.08269 3.05201 1.0815 3.0592 1.08026L3.08076 1.07667C3.08794 1.07552 3.0951 1.07428 3.10231 1.07318C3.10947 1.07209 3.11668 1.07117 3.12385 1.07015C3.13103 1.06914 3.13821 1.06806 3.14542 1.06711L3.16696 1.0644L3.18853 1.06194C3.19572 1.06113 3.20286 1.06019 3.21007 1.05946C3.21723 1.05872 3.22444 1.05818 3.23162 1.05752L3.25318 1.05561C3.26036 1.055 3.26753 1.05441 3.27473 1.05389C3.2819 1.05337 3.28909 1.05295 3.29629 1.0525C3.30348 1.05206 3.31064 1.05153 3.31783 1.05114C3.32499 1.05074 3.33219 1.05047 3.33938 1.05015L3.36094 1.04932C3.36812 1.04907 3.37528 1.0487 3.38249 1.04852C3.38965 1.04834 3.39686 1.04835 3.40403 1.04825C3.41121 1.04814 3.4184 1.04801 3.4256 1.04798L3.43517 1.04785H3.44714H3.4687H3.49025H3.51179H3.53336H3.5549H3.57647H3.59801H3.61956H3.64112H3.66267H3.68423H3.70577H3.72732H3.74888H3.77043H3.79199H3.81354H3.83508H3.85664H3.87819H3.89975H3.9213H3.94284H3.96441H3.98595H4.00751H4.02906H4.05061H4.07217H4.09371H4.11528H4.13682H4.15837H4.17993H4.20148H4.22302H4.24458H4.26613H4.28769H4.30924H4.33078H4.35235H4.37389H4.39545H4.417H4.43855H4.46011H4.48165H4.50322H4.52476H4.54631H4.56787H4.58942H4.61098H4.63252H4.65407H4.67563H4.69718H4.71872H4.74029H4.76183H4.78339H4.80494H4.8265H4.84805H4.86959H4.89116H4.9127H4.93425H4.95581H4.97736H4.99892H5.02046H5.04201H5.06357H5.08512H5.10668H5.12823H5.14977H5.17133H5.19288H5.21444H5.23599H5.25753H5.2791H5.30064H5.32219H5.34375H5.3653H5.38686H5.4084H5.42997H5.45151H5.47306H5.49462H5.51617H5.53773H5.55927H5.58082H5.60238H5.62393H5.64547H5.66704H5.68858H5.71014H5.73169H5.75325H5.7748H5.79634H5.81791H5.83945H5.861H5.88256H5.90411H5.92567H5.94721H5.96876H5.99032H6.01187H6.03341H6.05498H6.07652H6.09809H6.11963H6.14119H6.16274H6.18428H6.20585H6.22739H6.24894H6.2705H6.29205H6.31361H6.33516H6.3567H6.37826H6.39981H6.42137H6.44292H6.46446H6.48603H6.50757H6.52913H6.55068H6.57222H6.59379H6.61533H6.63688H6.65844H6.67999H6.70155H6.71984V12.2763C6.71984 12.3739 6.71359 12.4702 6.70155 12.5645C6.69575 12.61 6.68845 12.655 6.67999 12.6995C6.67354 12.7334 6.66639 12.767 6.65844 12.8004C6.65175 12.8284 6.64459 12.8563 6.63688 12.884C6.6301 12.9083 6.62288 12.9323 6.61533 12.9563C6.60848 12.9779 6.60127 12.9994 6.59379 13.0208C6.58686 13.0406 6.57969 13.0603 6.57222 13.0798C6.56526 13.098 6.55809 13.1161 6.55068 13.1341C6.5437 13.1511 6.53651 13.1679 6.52913 13.1847C6.52212 13.2005 6.51493 13.2163 6.50757 13.232C6.50056 13.247 6.49336 13.2618 6.48603 13.2766C6.47897 13.2908 6.4718 13.3049 6.46446 13.3189C6.45741 13.3324 6.45024 13.3458 6.44292 13.3592C6.43583 13.3721 6.42871 13.3849 6.42137 13.3977C6.4143 13.4099 6.40711 13.4222 6.39981 13.4343C6.39276 13.446 6.38553 13.4577 6.37826 13.4693C6.37118 13.4806 6.36398 13.4919 6.3567 13.5031C6.34958 13.514 6.34246 13.5249 6.33516 13.5357C6.32807 13.5462 6.32086 13.5566 6.31361 13.567C6.30652 13.5771 6.29931 13.5871 6.29205 13.5971C6.28492 13.6069 6.27777 13.6167 6.2705 13.6264C6.2634 13.6359 6.2562 13.6453 6.24894 13.6547C6.24183 13.6638 6.23462 13.6729 6.22739 13.6819C6.22025 13.6908 6.21311 13.6998 6.20585 13.7086C6.19874 13.7172 6.19151 13.7257 6.18428 13.7342C6.17716 13.7425 6.16999 13.7508 6.16274 13.7591C6.15558 13.7673 6.14846 13.7755 6.14119 13.7835C6.13409 13.7914 6.12684 13.7991 6.11963 13.8069C6.11247 13.8146 6.10535 13.8223 6.09809 13.8299C6.09096 13.8374 6.08375 13.8447 6.07652 13.8521C6.06938 13.8593 6.06222 13.8666 6.05498 13.8738C6.04784 13.8809 6.04066 13.8879 6.03341 13.8949C6.02629 13.9018 6.01908 13.9086 6.01187 13.9154C6.00471 13.9221 5.99757 13.9289 5.99032 13.9355C5.9832 13.942 5.97597 13.9484 5.96876 13.9549C5.96158 13.9613 5.95448 13.9677 5.94721 13.974C5.94011 13.9802 5.93285 13.9862 5.92567 13.9923C5.91849 13.9984 5.91135 14.0046 5.90411 14.0106C5.89698 14.0165 5.88975 14.0222 5.88256 14.028C5.87539 14.0338 5.86825 14.0396 5.861 14.0453C5.85388 14.0509 5.84665 14.0564 5.83945 14.0619C5.83228 14.0674 5.82515 14.073 5.81791 14.0784C5.81079 14.0837 5.80354 14.0889 5.79634 14.0942C5.78917 14.0994 5.78205 14.1047 5.7748 14.1098C5.76768 14.1149 5.76045 14.1198 5.75325 14.1248C5.74606 14.1298 5.73894 14.1349 5.73169 14.1398C5.72457 14.1446 5.71734 14.1493 5.71014 14.154C5.70295 14.1588 5.69583 14.1636 5.68858 14.1683C5.68146 14.1728 5.67421 14.1772 5.66704 14.1817C5.65986 14.1863 5.65272 14.1908 5.64547 14.1953C5.63833 14.1996 5.6311 14.2039 5.62393 14.2081C5.61675 14.2124 5.60961 14.2167 5.60238 14.2209C5.59523 14.2251 5.58803 14.2291 5.58082 14.2332C5.57366 14.2373 5.56649 14.2413 5.55927 14.2453C5.55212 14.2493 5.54494 14.2532 5.53773 14.257L5.51617 14.2685C5.50899 14.2722 5.50183 14.276 5.49462 14.2797C5.48746 14.2833 5.48027 14.2868 5.47306 14.2904C5.46588 14.294 5.45874 14.2976 5.45151 14.3011C5.44437 14.3046 5.43714 14.3079 5.42997 14.3112C5.42277 14.3146 5.41563 14.318 5.4084 14.3214C5.40126 14.3246 5.39403 14.3277 5.38686 14.3309L5.3653 14.3404L5.34375 14.3496C5.33659 14.3526 5.32938 14.3555 5.32219 14.3584C5.31501 14.3614 5.30785 14.3643 5.30064 14.3672C5.2935 14.37 5.28629 14.3727 5.2791 14.3754C5.2719 14.3782 5.26476 14.381 5.25753 14.3836C5.25038 14.3863 5.24318 14.3888 5.23599 14.3914L5.21444 14.399L5.19288 14.4065C5.18572 14.4089 5.17851 14.4112 5.17133 14.4135C5.16414 14.4158 5.157 14.4182 5.14977 14.4205C5.14263 14.4227 5.1354 14.4248 5.12823 14.427L5.10668 14.4334L5.08512 14.4396C5.07796 14.4416 5.07077 14.4435 5.06357 14.4454C5.05638 14.4474 5.04922 14.4494 5.04201 14.4513C5.03487 14.4531 5.02762 14.4548 5.02046 14.4566C5.01329 14.4583 5.00611 14.4601 4.99892 14.4618L4.97736 14.4668L4.95581 14.4715C4.94862 14.4731 4.94148 14.4748 4.93425 14.4763C4.92709 14.4777 4.91988 14.479 4.9127 14.4804C4.90553 14.4818 4.89835 14.4832 4.89116 14.4845L4.86959 14.4884C4.86244 14.4897 4.85524 14.4908 4.84805 14.492C4.84085 14.4932 4.8337 14.4945 4.8265 14.4956C4.81935 14.4967 4.81213 14.4977 4.80494 14.4987L4.78339 14.5017C4.77622 14.5027 4.76904 14.5037 4.76183 14.5046C4.75467 14.5055 4.74746 14.5062 4.74029 14.5071C4.73309 14.5079 4.72593 14.5088 4.71872 14.5096C4.71157 14.5103 4.70437 14.511 4.69718 14.5116L4.67563 14.5136C4.66844 14.5142 4.66128 14.5149 4.65407 14.5155C4.64691 14.516 4.6397 14.5164 4.63252 14.5168L4.61098 14.5182L4.58942 14.5193C4.58226 14.5197 4.57505 14.5199 4.56787 14.5202C4.56068 14.5204 4.5535 14.5208 4.54631 14.521C4.53915 14.5212 4.53194 14.5213 4.52476 14.5214L4.50322 14.5217C4.49656 14.5217 4.48992 14.5219 4.48323 14.5219H4.48165H4.46011H4.43855H4.417H4.39545H4.37389H4.35235H4.33078H4.30924H4.28769H4.26613H4.24458H4.22302H4.20148H4.17993H4.15837H4.13682H4.11528H4.09371H4.07217H4.05061H4.02906H4.00751H3.98595H3.96441H3.94284H3.9213H3.89975H3.87819H3.85664H3.83508H3.81354H3.79199H3.77043H3.74888H3.72732H3.70577H3.68423H3.66267H3.64112H3.61956H3.59801H3.57647H3.5549H3.53336H3.51179H3.49025H3.4687H3.44714H3.4256H3.40403H3.38249H3.36094H3.33938H3.31783H3.29629H3.27473H3.25318H3.23162H3.21007H3.18853H3.16696H3.14542H3.12385H3.10231H3.08076H3.0592H3.03766H3.01609H2.99455H2.973H2.95144H2.92989H2.90833H2.88679H2.86524H2.84368H2.82213H2.80057H2.77902H2.75748H2.73591H2.71437H2.69282H2.67126H2.64972H2.62815H2.60661H2.58506H2.5635H2.54195H2.52039H2.49885H2.4773H2.45574H2.43419H2.41263H2.39108H2.36954H2.34797H2.32643H2.30487H2.28332H2.26178H2.24021H2.21867H2.1971H2.17556H2.15401H2.13245H2.11091H2.08936H2.0678H2.04625H2.02469H2.00314H1.9816H1.96003H1.93849H1.91693H1.89538H1.87384H1.85227H1.83073H1.80916H1.78762H1.76607H1.74451H1.72297H1.7014H1.67986H1.65831H1.63675H1.6152H1.59364H1.57209H1.55055H1.52899H1.50744H1.48588H1.46433H1.44279H1.42122H1.39968H1.37813H1.35657H1.33503H1.31346H1.29192H1.27037H1.24881H1.20251V9.78927C1.20251 9.78927 1.21844 9.79367 1.24881 9.80136L1.27037 9.80677L1.29192 9.81205L1.31346 9.81724L1.33503 9.82236L1.35657 9.82739L1.37813 9.83235L1.39968 9.83724L1.42122 9.84205L1.44279 9.8468L1.46433 9.85149L1.48588 9.8561L1.50744 9.86066L1.52899 9.86518L1.55055 9.86959L1.57209 9.87398L1.59364 9.87831L1.6152 9.88258L1.63675 9.88679L1.65831 9.89097L1.67986 9.89509L1.7014 9.89913L1.72297 9.90313L1.74451 9.90709L1.76607 9.91098L1.78762 9.91485L1.80916 9.91864L1.83073 9.92239L1.85227 9.92607L1.87384 9.92972L1.89538 9.93332L1.91693 9.93687L1.93849 9.94038L1.96003 9.94382L1.9816 9.94724L2.00314 9.9506L2.02469 9.95392L2.04625 9.95717L2.0678 9.96039L2.08936 9.96355L2.11091 9.96668L2.13245 9.96975L2.15401 9.97278L2.17556 9.97575L2.1971 9.97869L2.21867 9.98157L2.24021 9.98441L2.26178 9.98721L2.28332 9.98994L2.30487 9.99265L2.32643 9.99529L2.34797 9.99792L2.36954 10.0005L2.39108 10.003L2.41263 10.0054L2.43419 10.0079L2.45574 10.0102L2.4773 10.0126L2.49885 10.0149L2.52039 10.0171L2.54195 10.0193L2.5635 10.0214L2.58506 10.0235L2.60661 10.0256L2.62815 10.0275L2.64972 10.0295L2.67126 10.0314L2.69282 10.0333L2.71437 10.0351L2.73591 10.0368L2.75748 10.0386L2.77902 10.0402L2.80057 10.0419L2.82213 10.0434L2.84368 10.045L2.86524 10.0465L2.88679 10.0479L2.90833 10.0493L2.92989 10.0506L2.95144 10.0519L2.973 10.0532L2.99455 10.0543L3.01609 10.0555L3.03766 10.0566L3.0592 10.0576L3.08076 10.0587L3.10231 10.0596L3.12385 10.0605L3.14542 10.0614L3.16696 10.0621L3.18853 10.0629L3.21007 10.0636L3.23162 10.0643L3.25318 10.0649L3.27473 10.0654L3.29629 10.0659L3.31783 10.0664L3.33938 10.0668L3.36094 10.0672L3.38249 10.0675L3.40403 10.0677L3.4256 10.0679L3.44714 10.0681L3.4687 10.0682L3.49025 10.0682L3.49857 10.0682L3.51179 10.0682L3.53336 10.068L3.5549 10.0679L3.57647 10.0678L3.59801 10.0677L3.61956 10.0673L3.64112 10.0669L3.66267 10.0665L3.68423 10.0661L3.70577 10.0655L3.72732 10.0649L3.74888 10.0642L3.77043 10.0635L3.79199 10.0628L3.81354 10.0619L3.83508 10.0609L3.85664 10.0599L3.87819 10.059L3.89975 10.0578L3.9213 10.0565L3.94284 10.0553L3.96441 10.054L3.98595 10.0526L4.00751 10.051L4.02906 10.0495L4.05061 10.0479L4.07217 10.0462L4.09371 10.0443L4.11528 10.0425L4.13682 10.0406L4.15837 10.0385L4.17993 10.0363L4.20148 10.0341L4.22302 10.0319L4.24458 10.0295L4.26613 10.027L4.28769 10.0244L4.30924 10.0219L4.33078 10.0191L4.35235 10.0162L4.37389 10.0133L4.39545 10.0103C4.40272 10.0093 4.40979 10.0082 4.417 10.0071L4.43855 10.0038L4.46011 10.0006L4.48165 9.99714C4.4889 9.99598 4.49601 9.9947 4.50322 9.9935L4.52476 9.98987C4.5319 9.98865 4.53922 9.98748 4.54631 9.98622C4.55357 9.98493 4.56064 9.98355 4.56787 9.98222L4.58942 9.97817L4.61098 9.97413L4.63252 9.96989C4.63977 9.96846 4.64688 9.96691 4.65407 9.96544L4.67563 9.96098L4.69718 9.95645C4.70446 9.95489 4.71151 9.9532 4.71872 9.95159L4.74029 9.9467C4.74743 9.94505 4.75475 9.9435 4.76183 9.94183C4.76911 9.94011 4.77618 9.93829 4.78339 9.93655L4.80494 9.93121C4.8121 9.92944 4.8194 9.92771 4.8265 9.9259C4.83375 9.92404 4.84087 9.92211 4.84805 9.92022L4.86959 9.91443C4.87677 9.91249 4.88405 9.91061 4.89116 9.90863C4.8984 9.90664 4.90553 9.90455 4.9127 9.90251L4.93425 9.89624C4.94142 9.89413 4.94871 9.89209 4.95581 9.88995L4.97736 9.88332L4.99892 9.87653C5.00608 9.87426 5.01338 9.87206 5.02046 9.86974L5.04201 9.86253L5.06357 9.8552C5.07073 9.85274 5.07805 9.85037 5.08512 9.84787C5.0924 9.84531 5.09947 9.84263 5.10668 9.84002L5.12823 9.83214C5.1354 9.82946 5.14267 9.82684 5.14977 9.82413C5.15705 9.82136 5.16414 9.81848 5.17133 9.81566C5.17853 9.81284 5.18578 9.81004 5.19288 9.80718L5.21444 9.79838L5.23599 9.78929C5.24315 9.78625 5.25047 9.78331 5.25753 9.78022C5.26483 9.77704 5.27189 9.77372 5.2791 9.77048L5.30064 9.76076L5.32219 9.7507C5.32943 9.74727 5.33659 9.74377 5.34375 9.74028C5.35093 9.7368 5.35823 9.73335 5.3653 9.72981C5.3726 9.72614 5.37966 9.72237 5.38686 9.71867C5.39405 9.71497 5.40132 9.7113 5.4084 9.70755C5.41569 9.70371 5.42279 9.69977 5.42997 9.69586C5.4372 9.69192 5.44439 9.68797 5.45151 9.68398C5.45876 9.67992 5.46594 9.67583 5.47306 9.67171C5.48032 9.66753 5.48748 9.66327 5.49462 9.65901C5.50183 9.65472 5.50906 9.65042 5.51617 9.64608C5.52345 9.6416 5.53057 9.63707 5.53773 9.63255C5.54494 9.628 5.55219 9.62346 5.55927 9.61884C5.56656 9.6141 5.57366 9.60923 5.58082 9.60441C5.58803 9.59955 5.5953 9.59473 5.60238 9.58981C5.60968 9.58474 5.61677 9.57959 5.62393 9.57445C5.63114 9.56927 5.63841 9.56408 5.64547 9.55884C5.65277 9.55343 5.6599 9.54795 5.66704 9.54247C5.67428 9.53692 5.6815 9.53133 5.68858 9.52571C5.69585 9.51994 5.70302 9.5141 5.71014 9.50825C5.71741 9.50227 5.72459 9.49621 5.73169 9.49016C5.73894 9.48398 5.74618 9.47782 5.75325 9.47156C5.76057 9.4651 5.76766 9.4585 5.7748 9.45195C5.78203 9.4453 5.78929 9.43867 5.79634 9.43193C5.80366 9.42494 5.8108 9.41788 5.81791 9.41081C5.82519 9.40355 5.83237 9.39622 5.83945 9.38887C5.8467 9.38136 5.85397 9.37387 5.861 9.36627C5.86834 9.35831 5.87544 9.35026 5.88256 9.3422C5.88988 9.33392 5.89704 9.32556 5.90411 9.31717C5.91139 9.30853 5.91864 9.29987 5.92567 9.29111C5.93297 9.282 5.94018 9.27289 5.94721 9.26367C5.95457 9.25403 5.96169 9.24429 5.96876 9.23452C5.97611 9.22435 5.98327 9.21411 5.99032 9.2038C5.99768 9.19305 6.00485 9.18222 6.01187 9.17132C6.01922 9.15989 6.02642 9.14837 6.03341 9.13677C6.04079 9.12452 6.048 9.11221 6.05498 9.09978C6.06239 9.08661 6.06956 9.07335 6.07652 9.05999C6.08397 9.04569 6.09114 9.0313 6.09809 9.0168C6.10557 9.00121 6.11272 8.98547 6.11963 8.96964C6.12713 8.95243 6.13434 8.93511 6.14119 8.91763C6.14875 8.89836 6.15596 8.87892 6.16274 8.85932C6.17043 8.83708 6.17757 8.8146 6.18428 8.79195C6.19212 8.76547 6.1993 8.73872 6.20585 8.71172C6.21397 8.67821 6.22118 8.64433 6.22739 8.61007C6.23663 8.55907 6.24375 8.50726 6.24894 8.45477C6.25619 8.38156 6.25971 8.30704 6.25971 8.23136V5.62578H6.24894H6.22739H6.20585H6.18428H6.16274H6.14119H6.11963H6.09809H6.07652H6.05498H6.03341H6.01187H5.99032H5.96876H5.94721H5.92567H5.90411H5.88256H5.861H5.83945H5.81791H5.79634H5.7748H5.75325H5.73169H5.71014H5.68858H5.66704H5.64547H5.62393H5.60238H5.58082H5.55927H5.53773H5.51617H5.49462H5.47306H5.45151H5.42997H5.4084H5.38686H5.3653H5.34375H5.32219H5.30064H5.2791H5.25753H5.23599H5.21444H5.19288H5.17133H5.14977H5.12823H5.10668H5.08512H5.06357H5.04201H5.02046H4.99892H4.97736H4.95581H4.93425H4.9127H4.89116H4.86959H4.84805H4.8265H4.80494H4.78339H4.76183H4.74029H4.71872H4.69718H4.67563H4.65407H4.63252H4.61098H4.58942H4.56787H4.54631H4.52476H4.50322H4.48165H4.46011H4.43855H4.417H4.39545H4.37389H4.35235H4.33601V8.23136C4.33601 8.27214 4.33424 8.31227 4.33078 8.35163C4.32638 8.40177 4.31917 8.45065 4.30924 8.49819C4.3031 8.52754 4.29591 8.55636 4.28769 8.58464C4.28114 8.60716 4.27399 8.62933 4.26613 8.65112C4.25944 8.66968 4.25223 8.68793 4.24458 8.70594C4.23777 8.722 4.23059 8.7378 4.22302 8.7534C4.21613 8.76759 4.20899 8.78162 4.20148 8.7954C4.19457 8.80808 4.18734 8.82051 4.17993 8.83284C4.17297 8.84443 4.16579 8.85587 4.15837 8.86713C4.15139 8.8777 4.14419 8.88812 4.13682 8.89839C4.12981 8.90818 4.12267 8.9179 4.11528 8.92744C4.10826 8.9365 4.10105 8.94537 4.09371 8.95417C4.08668 8.9626 4.07951 8.9709 4.07217 8.97911C4.06512 8.98701 4.05794 8.99483 4.05061 9.0025C4.04354 9.0099 4.03638 9.01723 4.02906 9.02444C4.02199 9.03139 4.01482 9.03829 4.00751 9.04504C4.00045 9.05158 3.99323 9.05799 3.98595 9.06435C3.97888 9.07051 3.97169 9.0766 3.96441 9.08259C3.95732 9.08841 3.95011 9.09414 3.94284 9.0998C3.93576 9.10529 3.92856 9.11072 3.9213 9.11607C3.91419 9.12128 3.90702 9.12642 3.89975 9.13147C3.89265 9.13641 3.88547 9.14126 3.87819 9.14606C3.87109 9.15073 3.86391 9.15533 3.85664 9.15985C3.84954 9.16427 3.84235 9.16862 3.83508 9.1729C3.82798 9.17708 3.82078 9.18118 3.81354 9.18524C3.80643 9.18921 3.79924 9.19307 3.79199 9.19692C3.78487 9.20069 3.77769 9.20437 3.77043 9.208C3.76331 9.21156 3.75613 9.21506 3.74888 9.21851C3.74174 9.22189 3.73458 9.22525 3.72732 9.2285C3.72018 9.2317 3.71302 9.23486 3.70577 9.23793C3.69867 9.24095 3.69146 9.24386 3.68423 9.24675C3.67711 9.24961 3.66989 9.25239 3.66267 9.25512C3.65553 9.25782 3.64837 9.26046 3.64112 9.26305C3.63398 9.2656 3.6268 9.26813 3.61956 9.27055C3.61243 9.27294 3.60524 9.27528 3.59801 9.27756C3.59089 9.27981 3.58368 9.28196 3.57647 9.2841C3.56933 9.28622 3.56213 9.2883 3.5549 9.2903C3.54775 9.29227 3.54059 9.29427 3.53336 9.29614C3.52622 9.29799 3.51902 9.29977 3.51179 9.30151C3.50467 9.30323 3.49748 9.30488 3.49025 9.3065C3.48311 9.3081 3.47593 9.30968 3.4687 9.31119C3.46155 9.31268 3.45439 9.31414 3.44714 9.31552C3.44 9.31689 3.43281 9.31816 3.4256 9.31944C3.41844 9.32069 3.41126 9.32195 3.40403 9.32312L3.38249 9.32643C3.37535 9.32747 3.36815 9.32842 3.36094 9.32937C3.35378 9.33032 3.34663 9.33126 3.33938 9.3321L3.31783 9.33451C3.31069 9.33525 3.3035 9.33589 3.29629 9.33656C3.28911 9.3372 3.28195 9.33787 3.27473 9.33843C3.26759 9.33898 3.26039 9.33947 3.25318 9.33993C3.24602 9.3404 3.23883 9.3408 3.23162 9.34117C3.22444 9.34155 3.2173 9.34193 3.21007 9.34222C3.20293 9.3425 3.19572 9.34267 3.18853 9.34288L3.16696 9.34338C3.15982 9.34351 3.15263 9.34355 3.14542 9.3436L3.13731 9.34367L3.12385 9.34362L3.10231 9.34347L3.08076 9.34317L3.0592 9.34272L3.03766 9.34214L3.01609 9.34144L2.99455 9.34056L2.973 9.33956L2.95144 9.33846L2.92989 9.33717L2.90833 9.33577L2.88679 9.33424L2.86524 9.33255L2.84368 9.33074L2.82213 9.3288L2.80057 9.32673L2.77902 9.3245L2.75748 9.32217L2.73591 9.31971L2.71437 9.31708L2.69282 9.31433L2.67126 9.3115L2.64972 9.30848L2.62815 9.30533L2.60661 9.3021L2.58506 9.29872L2.5635 9.2952L2.54195 9.29157L2.52039 9.28782L2.49885 9.2839L2.4773 9.2799L2.45574 9.27576L2.43419 9.27151L2.41263 9.2671L2.39108 9.2626L2.36954 9.25798L2.34797 9.25322L2.32643 9.24833L2.30487 9.24335L2.28332 9.23823L2.26178 9.23299L2.24021 9.22764L2.21867 9.22219L2.1971 9.21655L2.17556 9.21084L2.15401 9.20504L2.13245 9.19909L2.11091 9.19304L2.08936 9.18686L2.0678 9.18059L2.04625 9.17415L2.02469 9.16763L2.00314 9.16102L1.9816 9.15427L1.96003 9.1474L1.93849 9.14045L1.91693 9.13339L1.89538 9.12619L1.87384 9.11889L1.85227 9.11147L1.83073 9.10398L1.80916 9.09633L1.78762 9.08861L1.76607 9.08081L1.74451 9.07283L1.72297 9.06478L1.7014 9.05663L1.67986 9.04838L1.65831 9.04001L1.63675 9.03155L1.6152 9.02298L1.59364 9.0143L1.57209 9.00554L1.55055 8.99666L1.52899 8.9877L1.50744 8.97861L1.48588 8.96943L1.46433 8.96016L1.44279 8.9508L1.42122 8.94129L1.39968 8.93174L1.37813 8.92209L1.35657 8.91233L1.33503 8.90247L1.31346 8.89252L1.29192 8.88248L1.27037 8.87233L1.24881 8.8621V8.86209Z" fill="#12438D"/>
<path fill-rule="evenodd" clip-rule="evenodd" d="M7.43727 6.1951C7.42156 6.20786 7.40609 6.22072 7.39099 6.23375V3.2937C7.39099 3.13735 7.40697 2.98474 7.43727 2.83737C7.44378 2.80574 7.45099 2.77439 7.45881 2.74325C7.46552 2.71654 7.47273 2.69004 7.48038 2.66372C7.48719 2.64028 7.49439 2.617 7.50194 2.59388C7.50883 2.57275 7.51599 2.55173 7.52348 2.53089C7.53043 2.51158 7.53759 2.49236 7.54505 2.4733C7.55203 2.45547 7.55918 2.43774 7.56659 2.42014C7.57359 2.40354 7.58076 2.38705 7.58814 2.37064C7.59513 2.35507 7.60236 2.3396 7.6097 2.32422C7.61672 2.30953 7.62393 2.29498 7.63125 2.28046C7.63828 2.26652 7.64549 2.25269 7.65281 2.23891C7.65986 2.22563 7.66705 2.21245 7.67435 2.19933C7.68142 2.18663 7.6886 2.17398 7.69592 2.16144C7.703 2.14926 7.71014 2.13714 7.71746 2.1251C7.72453 2.11348 7.73172 2.10192 7.73901 2.09045C7.74609 2.07927 7.75331 2.06822 7.76057 2.05719C7.76768 2.0464 7.77483 2.03567 7.78212 2.02502C7.78926 2.01456 7.79638 2.00411 7.80368 1.99379C7.81075 1.98381 7.818 1.97398 7.82522 1.96413C7.83235 1.95443 7.83952 1.94479 7.84679 1.93521C7.85393 1.92578 7.86105 1.91633 7.86833 1.90702C7.8754 1.89799 7.88268 1.88908 7.8899 1.88015C7.89702 1.87133 7.90419 1.86254 7.91144 1.85385C7.91858 1.84526 7.92574 1.83671 7.933 1.82825C7.94011 1.81998 7.94734 1.81183 7.95455 1.80367C7.96169 1.79559 7.96885 1.78747 7.97611 1.77947C7.98322 1.77166 7.99043 1.76393 7.99764 1.75623C8.00476 1.74861 8.01196 1.74105 8.01919 1.73352C8.02634 1.7261 8.0335 1.71868 8.04075 1.71135C8.04787 1.70416 8.05508 1.69707 8.06229 1.68997C8.06947 1.68291 8.07659 1.6758 8.08386 1.66883C8.09096 1.66202 8.09821 1.65537 8.1054 1.64865C8.11256 1.64195 8.1197 1.63523 8.12697 1.62864C8.13409 1.62217 8.14132 1.61581 8.14851 1.60943C8.15567 1.60308 8.16283 1.59673 8.17007 1.59048C8.17721 1.58432 8.18441 1.57827 8.19162 1.57219C8.19878 1.56618 8.20595 1.56016 8.21318 1.55421C8.22032 1.54835 8.22752 1.54255 8.23473 1.53678C8.24189 1.53105 8.24906 1.52536 8.25629 1.51972C8.26343 1.51415 8.27062 1.50863 8.27784 1.50314C8.28499 1.49769 8.29217 1.49227 8.29938 1.48691C8.30652 1.4816 8.31373 1.47635 8.32094 1.47112C8.3281 1.46595 8.33528 1.46078 8.34249 1.45567C8.34965 1.45062 8.35684 1.44565 8.36405 1.44067C8.37121 1.43573 8.37839 1.43081 8.3856 1.42596C8.39274 1.42116 8.39995 1.41644 8.40716 1.41171C8.41432 1.40701 8.42148 1.4023 8.42871 1.39768C8.43587 1.39312 8.44306 1.38866 8.45027 1.38417C8.45745 1.3797 8.46459 1.37517 8.47182 1.37079C8.47896 1.36644 8.48619 1.36224 8.49338 1.35798C8.50057 1.35372 8.50769 1.34937 8.51492 1.34521C8.52205 1.34109 8.52931 1.33714 8.53649 1.3331C8.54368 1.32906 8.5508 1.32498 8.55803 1.32103C8.56517 1.31711 8.57238 1.31334 8.57958 1.30949C8.58675 1.30567 8.59391 1.30182 8.60114 1.29807L8.62269 1.28705L8.64425 1.27629C8.65141 1.27277 8.65858 1.26922 8.66579 1.26577C8.67295 1.26233 8.68016 1.25901 8.68736 1.25565C8.69455 1.25231 8.70167 1.24886 8.7089 1.24559C8.71604 1.24234 8.72327 1.23929 8.73047 1.23612C8.73764 1.23296 8.7448 1.22975 8.75201 1.22666C8.75917 1.2236 8.76636 1.22064 8.77356 1.21766L8.79512 1.20882C8.8023 1.20592 8.80945 1.20303 8.81666 1.20021C8.82382 1.19741 8.83103 1.19471 8.83823 1.19198C8.84542 1.18925 8.85254 1.18643 8.85977 1.18377C8.86691 1.18115 8.87416 1.17871 8.88134 1.17616C8.88851 1.17361 8.89567 1.17102 8.90288 1.16854C8.91004 1.16606 8.91725 1.16369 8.92444 1.1613L8.94599 1.15428C8.95317 1.15198 8.96034 1.14962 8.96755 1.14738C8.97469 1.14517 8.98192 1.14308 8.9891 1.14095C8.99627 1.13879 9.00345 1.13658 9.01066 1.1345C9.01782 1.13243 9.02501 1.13051 9.03221 1.12851L9.05375 1.12264C9.06095 1.12074 9.0681 1.11879 9.07532 1.11696C9.08247 1.11515 9.08968 1.11344 9.09686 1.11168C9.10404 1.10992 9.11121 1.10809 9.11842 1.1064C9.12558 1.10473 9.13279 1.10317 9.13997 1.10157L9.16153 1.09686C9.16873 1.09533 9.17587 1.09375 9.18308 1.0923C9.19024 1.09084 9.19745 1.08953 9.20464 1.08815C9.21182 1.08676 9.21897 1.08531 9.22619 1.084L9.24775 1.08026L9.26929 1.07669C9.27649 1.07552 9.28365 1.07428 9.29086 1.07318C9.29802 1.07209 9.30523 1.07117 9.3124 1.07015C9.31958 1.06914 9.32675 1.06808 9.33395 1.06713L9.35551 1.06442L9.37706 1.06194C9.38425 1.06113 9.39141 1.06019 9.39862 1.05946C9.40578 1.05872 9.41299 1.05818 9.42016 1.05752L9.44173 1.05561C9.4489 1.055 9.45608 1.05441 9.46327 1.05389C9.47045 1.05337 9.47764 1.05295 9.48482 1.0525C9.49201 1.05206 9.49917 1.05153 9.50638 1.05114C9.51356 1.05074 9.52075 1.05047 9.52795 1.05015L9.54949 1.04932C9.55668 1.04907 9.56384 1.0487 9.57105 1.04852C9.57821 1.04834 9.58542 1.04835 9.5926 1.04825C9.59979 1.04814 9.60697 1.04801 9.61416 1.04798L9.62366 1.04785H9.63571H9.65727H9.67882H9.70036H9.72192H9.74347H9.76503H9.78658H9.80814H9.82969H9.85125H9.87279H9.89434H9.9159H9.93745H9.95901H9.98056H10.0021H10.0237H10.0452H10.0668H10.0883H10.1099H10.1314H10.153H10.1746H10.1961H10.2177H10.2392H10.2608H10.2823H10.3039H10.3254H10.347H10.3685H10.3901H10.4116H10.4332H10.4547H10.4763H10.4978H10.5194H10.5409H10.5625H10.5841H10.6056H10.6272H10.6487H10.6703H10.6918H10.7134H10.7349H10.7565H10.778H10.7996H10.8211H10.8427H10.8643H10.8858H10.9074H10.9289H10.9505H10.972H10.9936H11.0151H11.0367H11.0582H11.0798H11.1013H11.1229H11.1444H11.166H11.1876H11.2091H11.2307H11.2522H11.2738H11.2953H11.3169H11.3384H11.36H11.3815H11.4031H11.4246H11.4462H11.4678H11.4893H11.5109H11.5324H11.554H11.5755H11.5971H11.6186H11.6402H11.6617H11.6833H11.7048H11.7264H11.7479H11.7695H11.7911H11.8126H11.8342H11.8557H11.8773H11.8988H11.9204H11.9419H11.9635H11.985H12.0066H12.0281H12.0497H12.0713H12.0928H12.1143H12.1359H12.1575H12.179H12.2006H12.2221H12.2437H12.2652H12.2868H12.3083H12.3299H12.3514H12.373H12.3946H12.4161H12.4377H12.4592H12.4808H12.5023H12.5239H12.5454H12.567H12.5885H12.6101H12.6316H12.6532H12.6747H12.6963H12.7178H12.7394H12.761H12.7825H12.8041H12.8256H12.8472H12.8687H12.8903H12.9085V12.2763C12.9085 12.3739 12.9023 12.4701 12.8903 12.5644C12.8845 12.6098 12.8772 12.6548 12.8687 12.6993C12.8623 12.7332 12.8551 12.7669 12.8472 12.8002C12.8405 12.8283 12.8333 12.8562 12.8256 12.8839C12.8188 12.9081 12.8116 12.9322 12.8041 12.9561C12.7972 12.9778 12.79 12.9993 12.7825 13.0207C12.7756 13.0405 12.7684 13.0601 12.761 13.0797C12.754 13.0979 12.7468 13.116 12.7394 13.134C12.7324 13.1509 12.7252 13.1678 12.7178 13.1845C12.7108 13.2004 12.7037 13.2162 12.6963 13.2319C12.6893 13.2468 12.6821 13.2617 12.6747 13.2765C12.6677 13.2907 12.6605 13.3048 12.6532 13.3188C12.6461 13.3323 12.639 13.3457 12.6316 13.3591C12.6245 13.372 12.6174 13.3848 12.6101 13.3976C12.603 13.4098 12.5958 13.422 12.5885 13.4342C12.5815 13.4459 12.5743 13.4575 12.567 13.4692C12.5599 13.4805 12.5527 13.4918 12.5454 13.5029C12.5383 13.5139 12.5312 13.5248 12.5239 13.5356C12.5168 13.5461 12.5096 13.5565 12.5023 13.5668C12.4952 13.5769 12.488 13.587 12.4808 13.597C12.4736 13.6068 12.4665 13.6166 12.4592 13.6263C12.4521 13.6358 12.4449 13.6452 12.4377 13.6545C12.4306 13.6637 12.4233 13.6727 12.4161 13.6818C12.409 13.6907 12.4018 13.6996 12.3946 13.7084C12.3875 13.717 12.3802 13.7255 12.373 13.7341C12.3659 13.7424 12.3587 13.7507 12.3514 13.759C12.3443 13.7671 12.3372 13.7753 12.3299 13.7834C12.3228 13.7912 12.3155 13.799 12.3083 13.8067C12.3012 13.8145 12.294 13.8222 12.2868 13.8298C12.2797 13.8373 12.2724 13.8446 12.2652 13.8519C12.2581 13.8592 12.2509 13.8664 12.2437 13.8736C12.2365 13.8807 12.2294 13.8878 12.2221 13.8948C12.215 13.9017 12.2078 13.9084 12.2006 13.9152C12.1934 13.922 12.1863 13.9288 12.179 13.9354C12.1719 13.9419 12.1647 13.9483 12.1575 13.9548C12.1503 13.9612 12.1432 13.9676 12.1359 13.9739C12.1288 13.9801 12.1215 13.9862 12.1143 13.9923C12.1072 13.9984 12.1 14.0045 12.0928 14.0105C12.0857 14.0164 12.0784 14.0221 12.0713 14.0279C12.0641 14.0337 12.0569 14.0395 12.0497 14.0452C12.0426 14.0508 12.0353 14.0563 12.0281 14.0618C12.021 14.0673 12.0138 14.0728 12.0066 14.0783C11.9995 14.0836 11.9922 14.0888 11.985 14.0941C11.9779 14.0993 11.9707 14.1046 11.9635 14.1097C11.9564 14.1148 11.9491 14.1197 11.9419 14.1247C11.9348 14.1297 11.9276 14.1348 11.9204 14.1397C11.9132 14.1445 11.906 14.1492 11.8988 14.1539C11.8916 14.1587 11.8845 14.1635 11.8773 14.1681C11.8701 14.1727 11.8629 14.1772 11.8557 14.1817C11.8485 14.1862 11.8414 14.1907 11.8342 14.1952C11.827 14.1995 11.8198 14.2038 11.8126 14.208C11.8054 14.2123 11.7983 14.2166 11.7911 14.2208C11.7839 14.225 11.7767 14.2291 11.7695 14.2331L11.7479 14.2452L11.7264 14.257L11.7048 14.2684C11.6977 14.2721 11.6905 14.2759 11.6833 14.2796C11.6761 14.2832 11.6689 14.2868 11.6617 14.2903C11.6546 14.2939 11.6474 14.2976 11.6402 14.3011C11.633 14.3045 11.6258 14.3078 11.6186 14.3112C11.6114 14.3145 11.6043 14.318 11.5971 14.3213C11.5899 14.3246 11.5827 14.3277 11.5755 14.3309L11.554 14.3403L11.5324 14.3495L11.5109 14.3584C11.5037 14.3613 11.4965 14.3643 11.4893 14.3671C11.4822 14.37 11.4749 14.3726 11.4678 14.3754C11.4606 14.3781 11.4534 14.3809 11.4462 14.3836C11.439 14.3862 11.4318 14.3888 11.4246 14.3914L11.4031 14.399L11.3815 14.4064C11.3744 14.4088 11.3672 14.4111 11.36 14.4134C11.3528 14.4158 11.3456 14.4182 11.3384 14.4204C11.3313 14.4227 11.3241 14.4248 11.3169 14.4269L11.2953 14.4334L11.2738 14.4395C11.2666 14.4415 11.2594 14.4435 11.2522 14.4454C11.245 14.4473 11.2379 14.4494 11.2307 14.4512C11.2235 14.4531 11.2163 14.4547 11.2091 14.4565C11.2019 14.4583 11.1947 14.4601 11.1876 14.4618L11.166 14.4668L11.1444 14.4715C11.1373 14.473 11.1301 14.4747 11.1229 14.4762C11.1157 14.4777 11.1085 14.479 11.1013 14.4804L11.0798 14.4845L11.0582 14.4884C11.0511 14.4897 11.0439 14.4908 11.0367 14.492C11.0295 14.4932 11.0223 14.4945 11.0151 14.4956C11.008 14.4967 11.0008 14.4976 10.9936 14.4987L10.972 14.5017C10.9648 14.5027 10.9577 14.5037 10.9505 14.5046C10.9433 14.5055 10.9361 14.5062 10.9289 14.5071C10.9217 14.5079 10.9146 14.5088 10.9074 14.5095C10.9002 14.5103 10.893 14.5109 10.8858 14.5116L10.8643 14.5136C10.8571 14.5142 10.8499 14.5149 10.8427 14.5154C10.8355 14.516 10.8283 14.5163 10.8211 14.5168L10.7996 14.5182L10.778 14.5193C10.7709 14.5197 10.7637 14.5199 10.7565 14.5202C10.7493 14.5204 10.7421 14.5208 10.7349 14.521C10.7278 14.5212 10.7206 14.5212 10.7134 14.5214L10.6918 14.5217C10.6851 14.5217 10.6784 14.5219 10.6717 14.5219H10.6703H10.6487H10.6272H10.6056H10.5841H10.5625H10.5409H10.5194H10.4978H10.4763H10.4547H10.4332H10.4116H10.3901H10.3685H10.347H10.3254H10.3039H10.2823H10.2608H10.2392H10.2177H10.1961H10.1746H10.153H10.1314H10.1099H10.0883H10.0668H10.0452H10.0237H10.0021H9.98056H9.95901H9.93745H9.9159H9.89434H9.87279H9.85125H9.82969H9.80814H9.78658H9.76503H9.74347H9.72192H9.70036H9.67882H9.65727H9.63571H9.61416H9.5926H9.57105H9.54949H9.52795H9.50638H9.48482H9.46327H9.44173H9.42016H9.39862H9.37706H9.35551H9.33395H9.3124H9.29086H9.26929H9.24775H9.22619H9.20464H9.18308H9.16153H9.13997H9.11842H9.09686H9.07532H9.05375H9.03221H9.01066H8.9891H8.96755H8.94599H8.92444H8.90288H8.88134H8.85977H8.83823H8.81666H8.79512H8.77356H8.75201H8.73047H8.7089H8.68736H8.66579H8.64425H8.62269H8.60114H8.57958H8.55803H8.53649H8.51492H8.49338H8.47182H8.45027H8.42871H8.40716H8.3856H8.36405H8.34249H8.32094H8.29938H8.27784H8.25629H8.23473H8.21318H8.19162H8.17007H8.14851H8.12697H8.1054H8.08386H8.06229H8.04075H8.01919H7.99764H7.97611H7.95455H7.933H7.91144H7.8899H7.86833H7.84679H7.82522H7.80368H7.78212H7.76057H7.73901H7.71746H7.69592H7.67435H7.65281H7.63125H7.6097H7.58814H7.56659H7.54505H7.52348H7.50194H7.48038H7.45881H7.43727H7.39099V9.33693C7.40609 9.34994 7.42156 9.36279 7.43727 9.37554C7.44439 9.38132 7.45158 9.38707 7.45881 9.39279C7.46595 9.39843 7.47313 9.40405 7.48038 9.40964C7.48753 9.41513 7.49467 9.42063 7.50194 9.42609C7.50904 9.43143 7.51627 9.43669 7.52348 9.44197C7.53061 9.44718 7.53782 9.45238 7.54505 9.45753C7.55219 9.46262 7.55934 9.4677 7.56659 9.47275L7.58814 9.48757C7.59526 9.4924 7.60247 9.4972 7.6097 9.50198L7.63125 9.5161C7.63839 9.52073 7.64556 9.52535 7.65281 9.52993C7.65991 9.53442 7.66714 9.53888 7.67435 9.54333L7.69592 9.5565C7.70308 9.56081 7.71023 9.56512 7.71746 9.56938C7.72459 9.57359 7.7318 9.57772 7.73901 9.58187L7.76057 9.59417L7.78212 9.60616L7.80368 9.61787C7.81084 9.62171 7.81798 9.62559 7.82522 9.6294C7.83235 9.63316 7.83958 9.63684 7.84679 9.64054L7.86833 9.65154L7.8899 9.6623L7.91144 9.67275C7.91862 9.6762 7.92576 9.67969 7.933 9.6831L7.95455 9.69309L7.97611 9.70299L7.99764 9.71256L8.01919 9.72201L8.04075 9.73125L8.06229 9.74026L8.08386 9.74914L8.1054 9.75776L8.12697 9.76631L8.14851 9.77454C8.15569 9.77727 8.16283 9.78004 8.17007 9.78273L8.19162 9.79062C8.1988 9.79324 8.20594 9.79592 8.21318 9.79851C8.22031 9.80106 8.22755 9.80352 8.23473 9.80603L8.25629 9.81358L8.27784 9.82082C8.28501 9.82323 8.29213 9.82569 8.29938 9.82806C8.3065 9.83041 8.31375 9.83268 8.32094 9.83499L8.34249 9.84193L8.36405 9.84857L8.3856 9.8552L8.40716 9.86158L8.42871 9.8679L8.45027 9.87405L8.47182 9.8801L8.49338 9.886L8.51492 9.89176L8.53649 9.89744L8.55803 9.90294L8.57958 9.90838L8.60114 9.91362L8.62269 9.91887L8.64425 9.92387L8.66579 9.92882L8.68736 9.93364L8.7089 9.93836L8.73047 9.94302L8.75201 9.94747L8.77356 9.95194L8.79512 9.95618L8.81666 9.96041L8.83823 9.9645L8.85977 9.96849L8.88134 9.97244L8.90288 9.9762L8.92444 9.97993L8.94599 9.98354L8.96755 9.98707L8.9891 9.99055L9.01066 9.99384L9.03221 9.99714L9.05375 10.0003L9.07532 10.0034L9.09686 10.0064L9.11842 10.0093L9.13997 10.0121L9.16153 10.0149L9.18308 10.0176L9.20464 10.0202L9.22619 10.0227L9.24775 10.0251L9.26929 10.0275L9.29086 10.0298L9.3124 10.032L9.33395 10.0342L9.35551 10.0362L9.37706 10.0382L9.39862 10.0401L9.42016 10.0419L9.44173 10.0438L9.46327 10.0455L9.48482 10.0471L9.50638 10.0487L9.52795 10.0502L9.54949 10.0517L9.57105 10.0531L9.5926 10.0543L9.61416 10.0556L9.63571 10.0568L9.65727 10.0579L9.67882 10.059L9.70036 10.06L9.72192 10.0609L9.74347 10.0618L9.76503 10.0627L9.78658 10.0634L9.80814 10.0641L9.82969 10.0648L9.85125 10.0654L9.87279 10.0659L9.89434 10.0664L9.9159 10.0668L9.93745 10.0672L9.95901 10.0675L9.98056 10.0678L10.0021 10.068L10.0237 10.0682L10.0452 10.0683L10.0668 10.0683L10.0883 10.0683L10.1099 10.0683L10.1314 10.0681L10.153 10.068L10.1746 10.0678L10.1961 10.0675L10.2177 10.0673L10.2392 10.067L10.2608 10.0665L10.2823 10.0661L10.3039 10.0656L10.3254 10.0651L10.347 10.0645L10.3685 10.0639L10.3901 10.0632L10.4116 10.0625L10.4332 10.0617L10.4547 10.061L10.4763 10.0601L10.4978 10.0592L10.5194 10.0583L10.5299 10.0578L10.5409 10.0573L10.5625 10.0563L10.5841 10.0551L10.6056 10.0539L10.6272 10.0526L10.6487 10.0513L10.6703 10.0498L10.6918 10.0484L10.7134 10.0468L10.7349 10.0451L10.7565 10.0434L10.778 10.0417L10.7996 10.0398L10.8211 10.0379L10.8427 10.0359L10.8643 10.0339L10.8858 10.0318L10.9074 10.0297L10.9289 10.0275L10.9505 10.0252L10.972 10.0229L10.9936 10.0205L11.0151 10.018L11.0367 10.0155L11.0582 10.013L11.0798 10.0104L11.1013 10.0077L11.1229 10.005L11.1444 10.0022L11.166 9.99946L11.1876 9.99657L11.2091 9.99366L11.2307 9.99069L11.2522 9.98768L11.2738 9.98462L11.2953 9.9815L11.3169 9.97835L11.3384 9.97512L11.36 9.97187L11.3815 9.96858L11.4031 9.96522L11.4246 9.96183L11.4462 9.95838L11.4678 9.95491L11.4893 9.95139L11.5109 9.94779L11.5324 9.94418L11.554 9.94052L11.5755 9.93682L11.5971 9.93306L11.6186 9.92927L11.6402 9.92543L11.6617 9.92155L11.6833 9.91763L11.7048 9.91368L11.7264 9.90967L11.7479 9.90561L11.7695 9.90152L11.7911 9.89739L11.8126 9.89322L11.8342 9.889L11.8557 9.88474L11.8773 9.88044L11.8988 9.8761L11.9204 9.87171L11.9419 9.86728L11.9635 9.86279L11.985 9.85828L12.0066 9.85373L12.0281 9.8491L12.0497 9.84446L12.0713 9.83975L12.0928 9.83501L12.1143 9.83021L12.1359 9.82538L12.1575 9.82048L12.179 9.81552L12.2006 9.81051L12.2221 9.80542L12.2437 9.80029L12.2652 9.79508L12.2867 9.78976V8.83981L12.2652 8.85052L12.2437 8.86121L12.2221 8.87179L12.2006 8.88228L12.179 8.8927L12.1575 8.90299L12.1359 8.91316L12.1143 8.92326L12.0928 8.93323L12.0713 8.94311L12.0497 8.95286L12.0281 8.96253L12.0066 8.97205L11.985 8.98146L11.9635 8.99079L11.9419 8.99998L11.9204 9.00907L11.8988 9.01806L11.8773 9.0269L11.8557 9.03563L11.8342 9.04425L11.8126 9.05276L11.7911 9.06112L11.7695 9.06938L11.7479 9.0775L11.7264 9.08552L11.7048 9.0934L11.6833 9.10118L11.6617 9.10883L11.6402 9.11636L11.6186 9.12374L11.5971 9.13102L11.5755 9.13819L11.554 9.14521L11.5324 9.15213L11.5109 9.15892L11.4893 9.16557L11.4678 9.17211L11.4462 9.17854L11.4246 9.18482L11.4031 9.19101L11.3815 9.19702L11.36 9.20295L11.3384 9.20875L11.3169 9.21443L11.2953 9.21998L11.2738 9.22541L11.2522 9.23071L11.2307 9.23592L11.2091 9.24098L11.1876 9.24591L11.166 9.25074L11.1444 9.25545L11.1229 9.26003L11.1013 9.26446L11.0798 9.26881L11.0582 9.27305L11.0367 9.27713L11.0151 9.2811L10.9936 9.28496L10.972 9.28872L10.9505 9.29231L10.9289 9.29581L10.9074 9.29923L10.8858 9.30248L10.8643 9.30562L10.8427 9.30867L10.8211 9.31159L10.7996 9.31437L10.778 9.31706L10.7565 9.31965L10.7349 9.32209L10.7134 9.32443L10.6918 9.32668L10.6703 9.32876L10.6487 9.33077L10.6272 9.33268L10.6056 9.33444L10.5925 9.33548L10.5841 9.33605L10.5625 9.33751L10.5409 9.33895L10.5194 9.34011L10.4978 9.34121L10.4763 9.34222L10.4547 9.34292L10.4332 9.34362L10.4116 9.34408L10.3901 9.34441L10.3685 9.34468C10.3613 9.34471 10.3542 9.34462 10.347 9.34461L10.3254 9.34453L10.3039 9.34421L10.2823 9.34374L10.2608 9.34319C10.2535 9.34295 10.2464 9.34259 10.2392 9.34231C10.232 9.34202 10.2248 9.34178 10.2177 9.34142L10.1961 9.34022L10.1746 9.33893L10.153 9.33744L10.1314 9.33571C10.1243 9.33512 10.117 9.33462 10.1099 9.33395C10.1027 9.33329 10.0955 9.3325 10.0883 9.33178L10.0668 9.3296L10.0452 9.32709L10.0237 9.32447L10.0021 9.32161L9.98056 9.31854C9.97336 9.31748 9.96615 9.31645 9.95901 9.31532C9.95178 9.31419 9.94462 9.31295 9.93745 9.31175C9.93027 9.31054 9.92302 9.30943 9.9159 9.30815C9.90866 9.30686 9.90153 9.30544 9.89434 9.30409C9.88716 9.30275 9.87992 9.30147 9.87279 9.30005C9.86555 9.29861 9.85844 9.29703 9.85125 9.29553C9.84406 9.29402 9.83683 9.29256 9.82969 9.29098C9.82246 9.28938 9.8153 9.28767 9.80814 9.286L9.78658 9.28092C9.77935 9.27916 9.77219 9.27729 9.76503 9.27546C9.75782 9.27361 9.75061 9.27178 9.74347 9.26985C9.73624 9.26791 9.72908 9.26588 9.72192 9.26387C9.71471 9.26184 9.7075 9.25981 9.70036 9.25769C9.69313 9.25555 9.68597 9.25334 9.67882 9.25113C9.6716 9.24891 9.66441 9.24668 9.65727 9.24438C9.65004 9.24204 9.64287 9.23964 9.63571 9.23723C9.62851 9.2348 9.62128 9.23238 9.61416 9.22988C9.60691 9.22735 9.59977 9.22471 9.5926 9.22208C9.5854 9.21944 9.57818 9.21684 9.57105 9.21413C9.56381 9.21136 9.55667 9.20848 9.54949 9.20563C9.5423 9.20277 9.53507 9.19995 9.52795 9.19702C9.52068 9.19402 9.51356 9.19088 9.50638 9.18779C9.49917 9.18468 9.49194 9.18161 9.48482 9.17841C9.47757 9.17516 9.47043 9.17178 9.46327 9.16844C9.45606 9.16506 9.44885 9.16169 9.44173 9.15824C9.4345 9.15472 9.4273 9.15114 9.42016 9.14753C9.41294 9.14387 9.40576 9.14015 9.39862 9.13639C9.39141 9.1326 9.38416 9.12885 9.37706 9.12495C9.36979 9.12098 9.36267 9.11688 9.35551 9.1128C9.3483 9.10869 9.34107 9.10459 9.33395 9.10037C9.3267 9.09608 9.31954 9.0917 9.3124 9.08731C9.30516 9.08286 9.298 9.07829 9.29086 9.07373C9.28365 9.06911 9.27638 9.06451 9.26929 9.05979C9.26201 9.05494 9.25491 9.04993 9.24775 9.04495C9.2405 9.03992 9.23331 9.03482 9.22619 9.02966C9.21896 9.02444 9.21173 9.01921 9.20464 9.01385C9.19736 9.00836 9.19022 9.00273 9.18308 8.99711C9.17583 8.9914 9.16865 8.98565 9.16153 8.97981C9.1543 8.97386 9.14706 8.96795 9.13997 8.96186C9.13269 8.95561 9.12555 8.94923 9.11842 8.94284C9.11114 8.93632 9.10398 8.92971 9.09686 8.92302C9.08961 8.91621 9.0824 8.90935 9.07532 8.9024C9.06807 8.89528 9.06082 8.88817 9.05375 8.88089C9.04645 8.87339 9.03931 8.86571 9.03221 8.85803C9.02491 8.85014 9.01775 8.84214 9.01066 8.83408C9.00336 8.82578 8.99617 8.81739 8.9891 8.80891C8.98182 8.80018 8.97462 8.79136 8.96755 8.78243C8.96025 8.7732 8.95304 8.76385 8.94599 8.7544C8.93869 8.74463 8.93148 8.73477 8.92444 8.72476C8.91713 8.71436 8.90991 8.70385 8.90288 8.6932C8.89555 8.68208 8.88837 8.67083 8.88134 8.65946C8.87396 8.64753 8.86679 8.63544 8.85977 8.62324C8.85238 8.6104 8.84522 8.59735 8.83823 8.58419C8.8308 8.57023 8.82364 8.55607 8.81666 8.54177C8.80924 8.52654 8.80204 8.51109 8.79512 8.49548C8.78768 8.47868 8.78043 8.46172 8.77356 8.44447C8.76597 8.42541 8.75888 8.40597 8.75201 8.38636C8.74441 8.3646 8.73719 8.34258 8.73047 8.32016C8.72268 8.29416 8.71547 8.26773 8.7089 8.24086C8.70074 8.20743 8.69362 8.17327 8.68736 8.13849C8.67807 8.08694 8.67084 8.03394 8.66579 7.97951C8.66 7.91665 8.65703 7.85188 8.65703 7.78525C8.65703 7.71858 8.66 7.65378 8.66579 7.59087C8.67084 7.53642 8.67807 7.4834 8.68736 7.43181C8.69362 7.39703 8.70074 7.36282 8.7089 7.32937C8.71547 7.3025 8.72268 7.27607 8.73047 7.25006C8.73719 7.22764 8.74441 7.20558 8.75201 7.1838C8.75888 7.16419 8.76597 7.14475 8.77356 7.12567C8.78043 7.1084 8.78768 7.09145 8.79512 7.07463C8.80204 7.059 8.80924 7.04357 8.81666 7.02833C8.82364 7.01402 8.8308 6.99984 8.83823 6.98588C8.84522 6.97272 8.85238 6.95967 8.85977 6.94681C8.86679 6.93459 8.87396 6.9225 8.88134 6.91057C8.88837 6.89919 8.89555 6.88794 8.90288 6.87682C8.90991 6.86617 8.91713 6.85566 8.92444 6.84524C8.93148 6.83523 8.93869 6.82537 8.94599 6.81558C8.95304 6.80613 8.96025 6.7968 8.96755 6.78755C8.97462 6.77862 8.98182 6.7698 8.9891 6.76107C8.99617 6.75257 9.00336 6.74418 9.01066 6.73588C9.01775 6.72782 9.02491 6.71979 9.03221 6.7119C9.03931 6.70423 9.04645 6.69654 9.05375 6.68903C9.06082 6.68176 9.06807 6.67462 9.07532 6.66751C9.0824 6.66056 9.08961 6.65369 9.09686 6.64689C9.10398 6.64022 9.11114 6.63357 9.11842 6.62705C9.12555 6.62068 9.13269 6.61428 9.13997 6.60803C9.14706 6.60196 9.1543 6.59603 9.16153 6.59008C9.16865 6.58424 9.17583 6.57848 9.18308 6.57276C9.19022 6.56712 9.19736 6.5615 9.20464 6.556C9.21173 6.55065 9.21896 6.54542 9.22619 6.54019C9.23331 6.53502 9.2405 6.52995 9.24775 6.5249C9.25491 6.51993 9.26201 6.51492 9.26929 6.51007C9.27638 6.50532 9.28365 6.50072 9.29086 6.49611C9.298 6.49153 9.30516 6.48698 9.3124 6.48252C9.31954 6.47812 9.3267 6.47376 9.33395 6.46946C9.34107 6.46524 9.3483 6.46115 9.35551 6.45703C9.36267 6.45295 9.36979 6.44886 9.37706 6.44489C9.38416 6.44099 9.39141 6.43722 9.39862 6.43343C9.40576 6.42967 9.41294 6.42595 9.42016 6.42229C9.4273 6.41868 9.4345 6.4151 9.44173 6.41158C9.44885 6.40811 9.45606 6.40474 9.46327 6.40136C9.47043 6.39802 9.47757 6.39464 9.48482 6.39139C9.49194 6.38819 9.49917 6.38512 9.50638 6.38201C9.51356 6.3789 9.52068 6.37578 9.52795 6.37278C9.53507 6.36983 9.5423 6.36701 9.54949 6.36415C9.55667 6.3613 9.56381 6.35842 9.57105 6.35566C9.57818 6.35294 9.5854 6.35034 9.5926 6.3477C9.59977 6.34508 9.60691 6.34243 9.61416 6.33988C9.62128 6.33739 9.62851 6.33496 9.63571 6.33254C9.64287 6.33013 9.65004 6.32772 9.65727 6.32539C9.66441 6.32309 9.6716 6.32086 9.67882 6.31863C9.68597 6.31642 9.69313 6.31423 9.70036 6.31209L9.72192 6.30591C9.72908 6.3039 9.73624 6.30185 9.74347 6.29991C9.75061 6.29799 9.75782 6.29616 9.76503 6.29431C9.77219 6.29247 9.77935 6.29061 9.78658 6.28885L9.80814 6.28376C9.8153 6.28209 9.82246 6.28038 9.82969 6.27879C9.83683 6.2772 9.84406 6.27573 9.85125 6.27422C9.85844 6.27271 9.86555 6.27113 9.87279 6.26969C9.87992 6.26828 9.88716 6.267 9.89434 6.26565C9.90153 6.26431 9.90866 6.26289 9.9159 6.26159C9.92302 6.26032 9.93027 6.2592 9.93745 6.258C9.94462 6.2568 9.95178 6.25556 9.95901 6.25442L9.98056 6.25121L10.0021 6.24812L10.0237 6.24526L10.0452 6.24264L10.0668 6.24012L10.0883 6.23795C10.0955 6.23723 10.1027 6.23644 10.1099 6.23578C10.117 6.23511 10.1243 6.23461 10.1314 6.23402L10.153 6.23229L10.1746 6.2308L10.1961 6.22951L10.2177 6.2283C10.2248 6.22794 10.232 6.22771 10.2392 6.22742C10.2464 6.22714 10.2535 6.22678 10.2608 6.22654L10.2823 6.22599L10.3039 6.22552L10.3254 6.2252L10.347 6.22512C10.3542 6.22511 10.3613 6.22502 10.3685 6.22505L10.3901 6.22532L10.4116 6.22565L10.4332 6.22611L10.4547 6.22681L10.4763 6.22751L10.4978 6.22852L10.5194 6.22961L10.5409 6.23078L10.5625 6.23222L10.5841 6.23367L10.5925 6.23425L10.6056 6.23529L10.6272 6.23702L10.6487 6.23888L10.6703 6.24086L10.6918 6.24293L10.7134 6.24514L10.7349 6.24745L10.7565 6.24986L10.778 6.25239L10.7996 6.25505L10.8211 6.2578L10.8427 6.26068L10.8643 6.26369L10.8858 6.26678L10.9074 6.27L10.9289 6.27336L10.9505 6.27683L10.972 6.28038L10.9936 6.2841L11.0151 6.28793L11.0367 6.29186L11.0582 6.29591L11.0798 6.30009L11.1013 6.30439L11.1229 6.3088L11.1444 6.31335L11.166 6.31802L11.1876 6.32282L11.2091 6.3277L11.2307 6.33273L11.2522 6.33791L11.2738 6.34319L11.2953 6.34858L11.3169 6.35411L11.3384 6.35977L11.36 6.36554L11.3815 6.37145L11.4031 6.37748L11.4246 6.38363L11.4462 6.38992L11.4678 6.39633L11.4893 6.40287L11.5109 6.40952L11.5324 6.41629L11.554 6.4232L11.5755 6.43025L11.5971 6.43742L11.6186 6.44471L11.6402 6.45211L11.6617 6.45964L11.6833 6.46733L11.7048 6.47512L11.7264 6.48303L11.7479 6.49108L11.7695 6.49925L11.7911 6.50755L11.8126 6.51596L11.8342 6.52449L11.8557 6.53315L11.8773 6.54193L11.8988 6.55085L11.9204 6.55988L11.9419 6.56903L11.9635 6.5783L11.985 6.58767L12.0066 6.59718L12.0281 6.60677L12.0497 6.61651L12.0713 6.62635L12.0928 6.6363L12.1143 6.64637L12.1359 6.65655L12.1575 6.66683L12.179 6.67721L12.2006 6.6877L12.2221 6.6983L12.2437 6.70899L12.2652 6.71979L12.2867 6.7306V5.77997L12.2652 5.77465L12.2437 5.76944L12.2221 5.76431L12.2006 5.75922L12.179 5.75421L12.1575 5.74927L12.1359 5.74436L12.1143 5.73951L12.0928 5.73474L12.0713 5.72997L12.0497 5.72529L12.0281 5.72065L12.0066 5.71602L11.985 5.71147L11.9635 5.70696L11.9419 5.70249L11.9204 5.69805L11.8988 5.69367L11.8773 5.68932L11.8557 5.68503L11.8342 5.68079L11.8126 5.67655L11.7911 5.67238L11.7695 5.66825L11.7479 5.66417L11.7264 5.66013L11.7048 5.65612L11.6833 5.65217L11.6617 5.64825L11.6402 5.64437L11.6186 5.64055L11.5971 5.63675L11.5755 5.633L11.554 5.62932L11.5324 5.62565L11.5109 5.62204L11.4893 5.61847L11.4678 5.61495L11.4462 5.61148L11.4246 5.60803L11.4031 5.60465L11.3815 5.60129L11.36 5.598L11.3384 5.59475L11.3169 5.59154L11.2953 5.58839L11.2738 5.58529L11.2522 5.58223L11.2307 5.57923L11.2091 5.57627L11.1876 5.57336L11.166 5.57048L11.1444 5.5677L11.1229 5.56493L11.1013 5.56222L11.0798 5.55956L11.0582 5.55697L11.0367 5.55444L11.0151 5.55194L10.9936 5.54952L10.972 5.54713L10.9505 5.54483L10.9289 5.54255L10.9074 5.54037L10.8858 5.53822L10.8643 5.53613L10.8427 5.5341L10.8211 5.53216L10.7996 5.53026L10.778 5.52843L10.7565 5.52667L10.7349 5.52496L10.7134 5.52336L10.6918 5.52176L10.6703 5.52031L10.6487 5.51885L10.6272 5.51754L10.6056 5.51625L10.5841 5.51506L10.5625 5.51393L10.5409 5.51289L10.5299 5.51237L10.5194 5.51192L10.4978 5.51102L10.4763 5.51012L10.4547 5.50922L10.4332 5.50847L10.4116 5.50773L10.3901 5.50698L10.3685 5.50633L10.347 5.50572L10.3254 5.50513L10.3039 5.50457L10.2823 5.50412L10.2608 5.50369L10.2392 5.50324L10.2177 5.50295L10.1961 5.50266L10.1746 5.50238L10.153 5.5022L10.1314 5.50209L10.1099 5.50196L10.0883 5.50191L10.0668 5.50195L10.0452 5.50198L10.0237 5.50205L10.0021 5.50225L9.98056 5.50247L9.95901 5.50268L9.93745 5.50306L9.9159 5.50342L9.89434 5.5038L9.87279 5.50434L9.85125 5.50487L9.82969 5.50541L9.80814 5.50611L9.78658 5.50683L9.76503 5.50755L9.74347 5.50843L9.72192 5.50933L9.70036 5.51021L9.67882 5.51127L9.65727 5.51235L9.63571 5.51341L9.61416 5.51465L9.5926 5.5159L9.57105 5.51716L9.54949 5.5186L9.52795 5.52005L9.50638 5.52151L9.48482 5.52316L9.46327 5.5248L9.44173 5.52649L9.42016 5.52832L9.39862 5.53013L9.37706 5.53206L9.35551 5.53409L9.33395 5.53612L9.3124 5.53827L9.29086 5.54052L9.26929 5.54274L9.24775 5.54517L9.22619 5.5476L9.20464 5.55007L9.18308 5.55273L9.16153 5.55537L9.13997 5.55816L9.11842 5.56101L9.09686 5.56387L9.07532 5.56693L9.05375 5.57L9.03221 5.57316L9.01066 5.57646L8.9891 5.57975L8.96755 5.58324L8.94599 5.58678L8.92444 5.59039L8.90288 5.59412L8.88134 5.59788L8.85977 5.60183L8.83823 5.60584L8.81666 5.60993L8.79512 5.61415L8.77356 5.61839L8.75201 5.62287L8.73047 5.62734L8.7089 5.63198L8.68736 5.6367L8.66579 5.64152L8.64425 5.64649L8.62269 5.65149L8.60114 5.65673L8.57958 5.66198L8.55803 5.66742L8.53649 5.67294L8.51492 5.67861L8.49338 5.6844L8.47182 5.69029L8.45027 5.69634L8.42871 5.70249L8.40716 5.70883L8.3856 5.71521L8.36405 5.72184L8.34249 5.7285L8.32094 5.73544C8.31375 5.73775 8.3065 5.74002 8.29938 5.74237L8.27784 5.74961C8.27066 5.75202 8.26341 5.75439 8.25629 5.75685L8.23473 5.7644L8.21318 5.77194C8.20594 5.77453 8.1988 5.7772 8.19162 5.77983C8.18443 5.78245 8.1772 5.78504 8.17007 5.78771L8.14851 5.79592C8.14132 5.79867 8.13409 5.80137 8.12697 5.80415L8.1054 5.8127L8.08386 5.82133L8.06229 5.83022L8.04075 5.83924L8.01919 5.84847L7.99764 5.85792L7.97611 5.86751L7.95455 5.87741L7.933 5.8874C7.92576 5.89081 7.91862 5.8943 7.91144 5.89775L7.8899 5.90822L7.86833 5.91898L7.84679 5.92998C7.83958 5.9337 7.83235 5.93738 7.82522 5.94113C7.81798 5.94494 7.81084 5.94882 7.80368 5.95269L7.78212 5.9644L7.76057 5.97638C7.75332 5.98046 7.74617 5.98457 7.73901 5.98871C7.7318 5.99286 7.72459 5.99699 7.71746 6.00119C7.71023 6.00545 7.70308 6.00976 7.69592 6.01407C7.68867 6.01844 7.68149 6.02284 7.67435 6.02726C7.66714 6.03171 7.65991 6.03617 7.65281 6.04066C7.64556 6.04524 7.63839 6.04988 7.63125 6.05449L7.6097 6.06863C7.60247 6.07343 7.59526 6.07819 7.58814 6.08304L7.56659 6.09788C7.55934 6.10293 7.55219 6.10801 7.54505 6.11309C7.53782 6.11825 7.53061 6.12344 7.52348 6.12867C7.51627 6.13395 7.50904 6.13922 7.50194 6.14455C7.49467 6.15001 7.48753 6.15551 7.48038 6.16102C7.47313 6.16661 7.46595 6.17224 7.45881 6.17788C7.45158 6.18359 7.44439 6.18934 7.43727 6.19512V6.1951Z" fill="#AC1534"/>
</g>
<defs>
<clipPath id="clip0_711_2">
<rect width="20" height="16" fill="white"/>
</clipPath>
</defs>
</svg>
