<svg width="26" height="16" viewBox="0 0 26 16" fill="none" xmlns="http://www.w3.org/2000/svg">
<g clip-path="url(#clip0_0_1935)">
<rect x="9.33215" y="1.83398" width="6.89231" height="12.3059" fill="#F47D20"/>
<path d="M9.76984 7.98722C9.76984 5.49092 10.9463 3.26744 12.7784 1.83439C11.4384 0.786568 9.74796 0.161133 7.91045 0.161133C3.56042 0.161133 0.0341797 3.66505 0.0341797 7.98722C0.0341797 12.3096 3.56042 15.8133 7.91045 15.8133C9.74796 15.8133 11.4384 15.1881 12.7784 14.1403C10.9463 12.7072 9.76984 10.4837 9.76984 7.98722Z" fill="#DE1F31"/>
<path fill-rule="evenodd" clip-rule="evenodd" d="M12.7783 14.1403C14.1181 15.1881 15.8087 15.8133 17.6463 15.8133C21.9963 15.8133 25.5225 12.3096 25.5225 7.98722C25.5225 3.66505 21.9963 0.161133 17.6463 0.161133C15.8087 0.161133 14.1181 0.786568 12.7783 1.83439C14.6104 3.26744 15.7869 5.49092 15.7869 7.98722C15.7869 10.4837 14.6104 12.7072 12.7783 14.1403ZM25.2766 12.5331H25.1969L25.105 12.742L25.0129 12.5331H24.9333V12.8368H24.9897V12.6077L25.0757 12.8053H25.1341L25.2204 12.6072V12.8368H25.2766V12.5331ZM24.7712 12.8368V12.5848H24.8733V12.5335H24.613V12.5848H24.7151V12.8368H24.7712Z" fill="#F3A837"/>
</g>
<defs>
<clipPath id="clip0_0_1935">
<rect width="26" height="16" fill="white"/>
</clipPath>
</defs>
</svg>
