<svg width="49" height="16" viewBox="0 0 49 16" fill="none" xmlns="http://www.w3.org/2000/svg">
<path fill-rule="evenodd" clip-rule="evenodd" d="M5.47338 1.73558C5.89267 1.73307 7.1388 1.62084 7.66663 3.40228C8.02219 4.60228 8.58857 6.56794 9.36577 9.29925H9.68229C10.5158 6.41971 11.0883 4.45406 11.4 3.40228C11.9333 1.60229 13.2666 1.73562 13.8 1.73562L17.9148 1.73562V14.5356H13.7209V6.99236H13.4396L11.1017 14.5356H7.94634L5.60844 6.98677H5.32721V14.5356H1.1333V1.73562L5.47338 1.73558ZM23.9371 1.73562V9.28447H24.2717L27.1155 3.07711C27.6676 1.84182 28.8441 1.73562 28.8441 1.73562H32.9026V14.5356H28.6211V6.98677H28.2865L25.4985 13.1941C24.9464 14.4238 23.7141 14.5356 23.7141 14.5356H19.6556V1.73562H23.9371ZM47.7014 7.81827C47.1041 9.51066 45.2286 10.7227 43.1522 10.7227H38.6622V14.5356H34.5907V7.81827H47.7014Z" fill="#0F754E"/>
<path fill-rule="evenodd" clip-rule="evenodd" d="M43.3485 1.73535H34.3772C34.5907 4.58507 37.0448 7.02461 39.5853 7.02461H47.9843C48.4689 4.65616 46.8004 1.73535 43.3485 1.73535Z" fill="url(#paint0_linear_415_0)"/>
<defs>
<linearGradient id="paint0_linear_415_0" x1="48.0666" y1="5.06252" x2="34.3772" y2="5.06252" gradientUnits="userSpaceOnUse">
<stop stop-color="#1F5CD7"/>
<stop offset="1" stop-color="#02AEFF"/>
</linearGradient>
</defs>
</svg>
