<svg width="24" height="16" viewBox="0 0 24 16" fill="none" xmlns="http://www.w3.org/2000/svg">
<g clip-path="url(#clip0_710_33)">
<path d="M5.00004 0.5H10.7925C11.601 0.5 12.104 1.181 11.9155 2.0195L9.21854 13.983C9.02804 14.8185 8.21854 15.5 7.40954 15.5H1.61754C0.93304 15.4995 0.46654 15.01 0.45504 14.352C0.45304 14.2335 0.46554 14.11 0.49454 13.9825L3.19254 2.019C3.38104 1.181 4.19054 0.5 5.00004 0.5Z" fill="#DD0228"/>
<path d="M10.25 0.5H16.985C17.8135 0.5 17.44 1.181 17.245 2.0195L14.4815 13.9835C14.2875 14.8185 14.348 15.5 13.5175 15.5H6.68996C5.99496 15.5 5.52196 15.0225 5.50046 14.377C5.49646 14.2515 5.50946 14.119 5.54096 13.983L8.39646 2.019C8.59346 1.181 9.32846 0.5 10.158 0.5" fill="#024381"/>
<path d="M16.6364 0.5H22.3369C22.9284 0.5 23.3564 0.8635 23.4699 1.3865C23.4919 1.4885 23.5019 1.5965 23.4994 1.709C23.4969 1.809 23.4839 1.913 23.4599 2.019L20.7634 13.983C20.5729 14.8185 19.7624 15.5 18.9529 15.5H13.1629C12.4854 15.5 12.0234 15.0235 12.0009 14.3795C11.9964 14.253 12.0089 14.1205 12.0399 13.9835L14.8289 2.0195C15.0179 1.181 15.8264 0.5 16.6364 0.5Z" fill="#01798A"/>
<path d="M9.68211 5.0585C9.51961 4.961 9.22961 4.9915 9.03111 5.126C8.83311 5.2575 8.80611 5.444 8.96811 5.5425C9.12761 5.637 9.41911 5.6095 9.61611 5.474C9.81311 5.34 9.84261 5.155 9.68211 5.0585ZM21.1541 5.688L20.5686 6.712L20.4371 5.5L19.8171 5.647L20.0441 7.6285L19.3366 8.775C19.3176 8.802 19.3006 8.8205 19.2771 8.8285C19.2511 8.841 19.2181 8.8435 19.1721 8.8435H19.1521L19.0001 9.312L19.3751 9.3125C19.6401 9.3115 19.8271 9.1685 19.9211 9L22.0001 5.5L21.1541 5.688ZM11.0786 8.5L10.8766 8.8505C10.8331 8.927 10.7591 9 10.5951 9H10.4946L10.3536 9.4375H10.6876C11.0811 9.4375 11.2666 9.222 11.2666 9.222H12.3096L12.4601 8.7555H11.5841L11.7241 8.5005L11.0786 8.5ZM5.20811 5.9425C5.11111 6.3175 5.03761 6.5625 4.86861 6.735C4.75211 6.854 4.57211 6.9105 4.40711 6.91C4.16061 6.91 3.95211 6.7545 3.96561 6.4985C3.96661 6.4795 3.96911 6.4595 3.97261 6.439C4.09361 5.7655 4.62111 4 4.62111 4H3.63761L3.12761 6.015C3.12761 6.015 3.00261 6.499 3.00011 6.7045C2.99811 6.861 3.02361 6.989 3.08211 7.097C3.27011 7.4395 3.82611 7.5 4.14411 7.5C4.68811 7.5 5.00961 7.448 5.27261 7.288C5.69211 7.033 5.81361 6.688 5.94311 6.2005C6.08911 5.6525 6.50011 4 6.50011 4H5.70261C5.70261 4 5.20861 5.9415 5.20811 5.9425ZM6.85061 7.5L7.20311 6.0655C7.27961 6.0325 7.35461 6 7.42561 6C7.59461 6 7.63261 6.1405 7.62411 6.1965C7.61711 6.2645 7.32911 7.5 7.32911 7.5H8.03111L8.27661 6.466C8.37861 6.084 8.43011 5.89 8.36511 5.732C8.29711 5.5555 8.12311 5.5 7.96211 5.5C7.85711 5.5 7.66411 5.5365 7.48911 5.617C7.42561 5.6475 7.36561 5.683 7.30211 5.718L7.35361 5.499L6.60711 5.616L6.12511 7.5H6.85061ZM12.7881 7.5L13.1406 6.0655C13.2171 6.0325 13.2921 6 13.3631 6C13.5321 6 13.5701 6.1405 13.5616 6.1965C13.5546 6.2645 13.2666 7.5 13.2666 7.5H13.9686L14.2141 6.466C14.3161 6.084 14.3676 5.89 14.3026 5.732C14.2346 5.5555 14.0606 5.5 13.8996 5.5C13.7946 5.5 13.6016 5.5365 13.4266 5.617C13.3631 5.6475 13.3031 5.683 13.2396 5.718L13.2911 5.499L12.5446 5.616L12.0626 7.5H12.7881ZM8.50011 7.5H9.22561L9.60061 6L8.85761 6.11L8.50011 7.5ZM17.7121 4.31C17.5051 4.0085 17.0776 4.0025 16.5836 4C16.5831 4 16.2201 4 16.2201 4H15.4131L14.5001 7.5H15.2896L15.6221 6.25H15.7691C16.2726 6.25 16.7551 6.243 17.1736 5.941C17.4661 5.728 17.6901 5.445 17.7876 5.0625C17.8126 4.969 17.8326 4.8575 17.8356 4.746C17.8391 4.5995 17.7941 4.4235 17.7121 4.31ZM16.8711 5.095C16.8136 5.3285 16.6571 5.525 16.4601 5.6195C16.2981 5.6995 16.0996 5.688 15.8976 5.6875H15.7716L16.0876 4.5C16.1586 4.5 16.2776 4.5 16.3976 4.5C16.7726 4.5 16.8916 4.7385 16.8906 4.9375C16.8906 4.989 16.8841 5.042 16.8711 5.095ZM14.2351 10.5C14.2351 10.5 14.1976 10.6095 14.1856 10.6465C14.1756 10.678 14.1356 10.75 14.0221 10.75H13.8126V10.5H13.2501V11.75C13.2466 11.8415 13.3396 12 13.7491 12H14.2151L14.3581 11.562L13.9381 11.5625C13.8131 11.5625 13.8156 11.5045 13.8141 11.4125C13.8126 11.3125 13.8126 11.125 13.8126 11.125H14.2096C14.5746 11.125 14.6546 10.822 14.6826 10.7315L14.7371 10.5H14.2351Z" fill="#FEFEFE"/>
<path d="M14.412 8.5C13.661 8.5 13.5145 8.835 13.5145 8.835L13.6175 8.5H13.0125L12.023 11.5415C12.0125 11.5765 11.999 11.6315 12 11.691C12.003 11.832 12.087 12 12.482 12L12.841 11.9995L13.001 11.5C13.001 11.5 12.821 11.5 12.7585 11.5C12.68 11.5 12.696 11.435 12.696 11.435L13.0505 10.359H13.9395C14.6745 10.359 14.811 9.909 14.877 9.704L15.269 8.5C15.269 8.5 14.6845 8.5 14.412 8.5ZM14.149 10H13.1485L13.2515 9.698H14.254L14.149 10ZM14.411 9.259C14.411 9.259 13.905 9.254 13.8235 9.269C13.465 9.331 13.3145 9.523 13.3145 9.523L13.4835 9H14.495L14.411 9.259ZM18.7535 5.617C18.7535 5.617 18.7485 5.637 18.7395 5.6725C18.6625 5.5895 18.535 5.5 18.334 5.5C18.084 5.5 17.8655 5.5895 17.609 5.8085C17.3835 6.0035 17.2705 6.2715 17.2035 6.528C17.1775 6.623 17.162 6.7735 17.162 6.875C17.162 7.5 17.703 7.5 17.8345 7.5C18.032 7.5 18.1895 7.4245 18.317 7.3265C18.301 7.388 18.2715 7.5 18.2715 7.5H18.997L19.5 5.5L18.7535 5.617ZM18.049 7.058C18.0175 7.058 17.83 7.058 17.8345 6.8525C17.8365 6.751 17.8605 6.6375 17.897 6.507C17.982 6.203 18.0965 5.9375 18.397 5.9375C18.632 5.9375 18.6275 6.126 18.527 6.504C18.498 6.6125 18.4165 6.8085 18.353 6.904C18.2605 7.043 18.155 7.058 18.049 7.058ZM11.884 5.7465C11.7355 5.56 11.465 5.5005 11.183 5.5C11.0135 5.5 10.6085 5.5155 10.285 5.7895C10.0525 5.9875 9.93998 6.2565 9.86948 6.514C9.79848 6.7765 9.71148 7.2495 10.1675 7.426C10.308 7.484 10.5125 7.5 10.645 7.5C10.9825 7.5005 11.331 7.413 11.599 7.1525C11.8055 6.9415 11.906 6.627 11.9415 6.4975C12.057 6.069 11.982 5.8685 11.884 5.7465ZM10.7145 7.0575C10.683 7.0575 10.4955 7.0575 10.5 6.852C10.502 6.7505 10.53 6.6165 10.5625 6.5065C10.647 6.2205 10.7625 5.937 11.0625 5.937C11.2975 5.937 11.293 6.1255 11.1925 6.5035C11.1635 6.612 11.082 6.808 11.0185 6.9035C10.926 7.043 10.8205 7.058 10.7145 7.0575ZM10.4235 9.5575L10.278 10H10.701L10.577 10.3845H10.153L9.99998 10.853H10.4225L10.1545 11.6725C10.1185 11.781 10.117 11.9995 10.5235 11.9995H11.337L11.5 11.5C11.5 11.5 11.0345 11.5 10.9095 11.5C10.7845 11.5 10.818 11.4115 10.818 11.4115L11.002 10.8455H11.875L12.026 10.385H11.1525L11.28 10H12.1365L12.285 9.5575H10.4235ZM19.85 9.958L20 9.5H17.9815L17.8345 9.958H18.44L18.3165 10.3295H17.7005L17.569 10.7355H18.11L17.6285 11.368C17.59 11.4235 17.5085 11.5 17.3745 11.5H17.1315L17.179 11.3555H16.97L17.7395 9H18.013L18.099 8.741C18.099 8.741 18.099 8.9315 18.099 8.9995C18.099 9.2165 18.1615 9.3125 18.5095 9.3125H18.7485L18.9 8.845H18.7885C18.715 8.8465 18.68 8.823 18.686 8.776V8.5C18.686 8.5 18.2865 8.5 18.061 8.5C17.4735 8.5 17.1095 8.5275 16.9645 8.566C16.789 8.611 16.561 8.7445 16.561 8.7445L16.6395 8.5H15.99L15.059 11.361H14.919L14.76 11.845H16.197L16.1465 12H16.761L16.811 11.845H17.012L16.9595 12H17.4695C17.599 12 17.7035 11.971 17.7905 11.9225C17.8815 11.872 17.953 11.8005 18.014 11.719L18.392 11.216L18.4495 11.7435C18.464 11.8395 18.501 12 18.8955 12H19.1795L19.344 11.5H19.1585C19.026 11.5 18.9975 11.4025 18.99 11.3515L18.924 10.8395H18.6165L18.7415 10.7355H19.593L19.727 10.3295H18.9345L19.06 9.958H19.85ZM16.482 9H17.1335L16.9945 9.4265C16.9945 9.4265 16.7635 9.4405 16.648 9.4665C16.4515 9.5115 16.288 9.5905 16.288 9.5905L16.482 9ZM16.3645 11.361H15.7115L15.885 10.829H16.5365L16.3645 11.361ZM16.704 10.311C16.704 10.311 16.531 10.3325 16.417 10.3585C16.2175 10.416 15.9895 10.5 15.9895 10.5L16.1895 9.891H16.8435L16.704 10.311Z" fill="#FEFEFE"/>
</g>
<defs>
<clipPath id="clip0_710_33">
<rect width="24" height="16" fill="white"/>
</clipPath>
</defs>
</svg>
