<svg width="44" height="16" viewBox="0 0 44 16" fill="none" xmlns="http://www.w3.org/2000/svg">
<path fill-rule="evenodd" clip-rule="evenodd" d="M21.2158 1.29563L18.3526 14.7894H14.8898L17.754 1.29563H21.2158ZM35.7826 10.0084L37.6053 4.94183L38.6545 10.0084H35.7826ZM39.6462 14.7894H42.8485L40.0532 1.29563H37.0981C36.4333 1.29563 35.8729 1.68503 35.6241 2.28523L30.429 14.7894H34.0638L34.786 12.7736H39.2278L39.6462 14.7894ZM30.6089 10.3836C30.6244 6.82263 25.7244 6.62583 25.7583 5.03483C25.7688 4.55103 26.226 4.03663 27.2268 3.90483C27.7222 3.83963 29.0904 3.78903 30.6402 4.50823L31.2486 1.64723C30.4149 1.34203 29.3435 1.04883 28.0092 1.04883C24.5873 1.04883 22.1783 2.88323 22.159 5.50923C22.1362 7.45263 23.8781 8.53563 25.1905 9.18183C26.5389 9.84303 26.9912 10.2674 26.9862 10.8586C26.9761 11.7644 25.9102 12.1636 24.9138 12.1794C23.1731 12.2066 22.1628 11.705 21.3578 11.3268L20.7309 14.2838C21.5391 14.658 23.0324 14.9844 24.5811 15.0004C28.2187 15.0004 30.5976 13.1896 30.6089 10.3836ZM16.2681 1.29563L10.6586 14.7894H6.99878L4.23803 4.02043C4.07041 3.35743 3.9252 3.11403 3.41558 2.83523C2.58321 2.37943 1.20888 1.95223 0 1.68703L0.0815311 1.29563H5.9732C6.72384 1.29563 7.3993 1.79903 7.5699 2.67123L9.02794 10.48L12.6314 1.29563H16.2681Z" fill="#2145ED"/>
</svg>
