<svg width="16" height="16" viewBox="0 0 16 16" fill="none" xmlns="http://www.w3.org/2000/svg">
    <path fill-rule="evenodd" clip-rule="evenodd" d="M16 7H0V10.48C0 11.7121 0 12.3282 0.239786 12.7988C0.450707 13.2127 0.787264 13.5493 1.20122 13.7602C1.67183 14 2.28788 14 3.52 14H12.48C13.7121 14 14.3282 14 14.7988 13.7602C15.2127 13.5493 15.5493 13.2127 15.7602 12.7988C16 12.3282 16 11.7121 16 10.48V7ZM12 9C11.4477 9 11 9.44772 11 10C11 10.5523 11.4477 11 12 11H13C13.5523 11 14 10.5523 14 10C14 9.44772 13.5523 9 13 9H12Z" fill="white"/>
    <path opacity="0.6" d="M0 5C0 4.25579 0 3.88369 0.0891155 3.58019C0.300045 2.86183 0.861827 2.30005 1.58019 2.08912C1.88369 2 2.25579 2 3 2H13C13.7442 2 14.1163 2 14.4198 2.08912C15.1382 2.30005 15.7 2.86183 15.9109 3.58019C16 3.88369 16 4.25579 16 5H0Z" fill="white"/>
</svg>